SplineFontDB: 3.2
FontName: PMDG_NG3_DU_A
FullName: PMDG_NG3_DU_A
FamilyName: PMDG_NG3_DU_A
Weight: Book
Copyright: Copyright (c) 2008-2019 Precision Manuals Development Group. All rights reserved. Modified by Oudoum.
Version: 001.000
ItalicAngle: 0
UnderlinePosition: -125
UnderlineWidth: 62
Ascent: 800
Descent: 200
InvalidEm: 0
sfntRevision: 0x00010000
LayerCount: 2
Layer: 0 1 "Hinten" 1
Layer: 1 1 "Vorne" 0
XUID: [1021 29 -729883645 18117]
StyleMap: 0x0040
FSType: 0
OS2Version: 2
OS2_WeightWidthSlopeOnly: 0
OS2_UseTypoMetrics: 0
CreationTime: 1395059300
ModificationTime: 1666536255
PfmFamily: 81
TTFWeight: 400
TTFWidth: 5
LineGap: 57
VLineGap: 0
Panose: 0 0 0 0 0 0 0 0 0 0
OS2TypoAscent: 875
OS2TypoAOffset: 0
OS2TypoDescent: 0
OS2TypoDOffset: 0
OS2TypoLinegap: 57
OS2WinAscent: 875
OS2WinAOffset: 0
OS2WinDescent: 118
OS2WinDOffset: 0
HheadAscent: 875
HheadAOffset: 0
HheadDescent: 0
HheadDOffset: 0
OS2SubXSize: 700
OS2SubYSize: 650
OS2SubXOff: 0
OS2SubYOff: 140
OS2SupXSize: 700
OS2SupYSize: 650
OS2SupXOff: 0
OS2SupYOff: 477
OS2StrikeYSize: 50
OS2StrikeYPos: 250
OS2CapHeight: 875
OS2XHeight: 625
OS2Vendor: 'pyrs'
OS2CodePages: 00000001.00000000
OS2UnicodeRanges: 80000003.00000000.00000000.00000000
MarkAttachClasses: 1
DEI: 91125
TtTable: prep
PUSHW_1
 0
CALL
EndTTInstrs
TtTable: fpgm
PUSHW_1
 0
FDEF
MPPEM
PUSHW_1
 9
LT
IF
PUSHB_2
 1
 1
INSTCTRL
EIF
PUSHW_1
 511
SCANCTRL
PUSHW_1
 68
SCVTCI
PUSHW_2
 9
 3
SDS
SDB
ENDF
PUSHW_1
 1
FDEF
DUP
DUP
RCVT
ROUND[Black]
WCVTP
PUSHB_1
 1
ADD
ENDF
PUSHW_1
 2
FDEF
PUSHW_1
 1
LOOPCALL
POP
ENDF
PUSHW_1
 3
FDEF
DUP
GC[cur]
PUSHB_1
 3
CINDEX
GC[cur]
GT
IF
SWAP
EIF
DUP
ROLL
DUP
ROLL
MD[grid]
ABS
ROLL
DUP
GC[cur]
DUP
ROUND[Grey]
SUB
ABS
PUSHB_1
 4
CINDEX
GC[cur]
DUP
ROUND[Grey]
SUB
ABS
GT
IF
SWAP
NEG
ROLL
EIF
MDAP[rnd]
DUP
PUSHB_1
 0
GTEQ
IF
ROUND[Black]
DUP
PUSHB_1
 0
EQ
IF
POP
PUSHB_1
 64
EIF
ELSE
ROUND[Black]
DUP
PUSHB_1
 0
EQ
IF
POP
PUSHB_1
 64
NEG
EIF
EIF
MSIRP[no-rp0]
ENDF
PUSHW_1
 4
FDEF
DUP
GC[cur]
PUSHB_1
 4
CINDEX
GC[cur]
GT
IF

StartChar: exclam
Encoding: 33 33 4
Width: 562
GlyphClass: 2
Flags: W
LayerCount: 2
Fore
SplineSet
229 822 m 1,0,1
 234 848 234 848 250 861.5 c 128,-1,2
 266 875 266 875 284 875 c 0,3,4
 301 875 301 875 316 863 c 128,-1,5
 331 851 331 851 339 827 c 1,6,-1
 339 315 l 2,7,8
 337 284 337 284 320.5 268.5 c 128,-1,9
 304 253 304 253 284 253 c 0,10,11
 265 253 265 253 249 267 c 128,-1,12
 233 281 233 281 229 310 c 1,13,-1
 229 822 l 1,14,-1
 229 822 l 1,0,1
206 78 m 256,15,16
 206 110 206 110 229 133 c 128,-1,17
 252 156 252 156 284 156 c 256,18,19
 316 156 316 156 339 133 c 128,-1,20
 362 110 362 110 362 78 c 256,21,22
 362 46 362 46 339 23 c 128,-1,23
 316 0 316 0 284 0 c 256,24,25
 252 0 252 0 229 23 c 128,-1,26
 206 46 206 46 206 78 c 256,15,16
EndSplineSet
Validated: 5
EndChar

StartChar: quotedbl
Encoding: 34 34 5
Width: 562
GlyphClass: 2
Flags: W
LayerCount: 2
Fore
SplineSet
120 823 m 1,0,1
 125 849 125 849 141 862.5 c 128,-1,2
 157 876 157 876 175 876 c 0,3,4
 192 876 192 876 207 864 c 128,-1,5
 222 852 222 852 230 828 c 1,6,-1
 230 624 l 2,7,8
 228 593 228 593 211.5 577.5 c 128,-1,9
 195 562 195 562 175 562 c 0,10,11
 156 562 156 562 140 576 c 128,-1,12
 124 590 124 590 120 619 c 1,13,-1
 120 823 l 1,14,-1
 120 823 l 1,0,1
313 823 m 1,15,16
 318 849 318 849 334 862.5 c 128,-1,17
 350 876 350 876 368 876 c 0,18,19
 385 876 385 876 400 864 c 128,-1,20
 415 852 415 852 423 828 c 1,21,-1
 423 624 l 2,22,23
 421 593 421 593 404.5 577.5 c 128,-1,24
 388 562 388 562 368 562 c 0,25,26
 349 562 349 562 333 576 c 128,-1,27
 317 590 317 590 313 619 c 1,28,-1
 313 823 l 1,29,-1
 313 823 l 1,15,16
EndSplineSet
Validated: 5
EndChar

StartChar: numbersign
Encoding: 35 35 6
Width: 562
GlyphClass: 2
Flags: W
LayerCount: 2
Fore
SplineSet
77 541 m 1,0,1
 48 545 48 545 34 561 c 128,-1,2
 20 577 20 577 20 596 c 0,3,4
 20 616 20 616 35.5 633.5 c 128,-1,5
 51 651 51 651 82 651 c 2,6,-1
 120 651 l 1,7,-1
 120 822 l 1,8,9
 125 848 125 848 141 861.5 c 128,-1,10
 157 875 157 875 175 875 c 0,11,12
 192 875 192 875 207 863 c 128,-1,13
 222 851 222 851 230 827 c 1,14,-1
 230 651 l 1,15,-1
 333 651 l 1,16,-1
 333 822 l 1,17,18
 338 848 338 848 354 861.5 c 128,-1,19
 370 875 370 875 388 875 c 0,20,21
 405 875 405 875 420 863 c 128,-1,22
 435 851 435 851 443 827 c 1,23,-1
 443 651 l 1,24,-1
 492 651 l 1,25,26
 516 643 516 643 528 628 c 128,-1,27
 540 613 540 613 540 596 c 0,28,29
 540 578 540 578 526.5 562 c 128,-1,30
 513 546 513 546 487 541 c 1,31,-1
 443 541 l 1,32,-1
 443 334 l 1,33,-1
 492 334 l 1,34,35
 516 326 516 326 528 311 c 128,-1,36
 540 296 540 296 540 279 c 0,37,38
 540 261 540 261 526.5 245 c 128,-1,39
 513 229 513 229 487 224 c 1,40,-1
 443 224 l 1,41,-1
 443 62 l 2,42,43
 441 31 441 31 424.5 15.5 c 128,-1,44
 408 0 408 0 388 0 c 0,45,46
 369 0 369 0 353 14 c 128,-1,47
 337 28 337 28 333 57 c 1,48,-1
 333 224 l 1,49,-1
 230 224 l 1,50,-1
 230 62 l 2,51,52
 228 31 228 31 211.5 15.5 c 128,-1,53
 195 0 195 0 175 0 c 0,54,55
 156 0 156 0 140 14 c 128,-1,56
 124 28 124 28 120 57 c 1,57,-1
 120 224 l 1,58,-1
 77 224 l 1,59,60
 48 228 48 228 34 244 c 128,-1,61
 20 260 20 260 20 279 c 0,62,63
 20 299 20 299 35.5 316.5 c 128,-1,64
 51 334 51 334 82 334 c 2,65,-1
 120 334 l 1,66,-1
 120 541 l 1,67,-1
 77 541 l 1,68,-1
 77 541 l 1,0,1
230 334 m 1,69,-1
 333 334 l 1,70,-1
 333 541 l 1,71,-1
 230 541 l 1,72,-1
 230 334 l 1,69,-1
EndSplineSet
Validated: 5
EndChar

StartChar: dollar
Encoding: 36 36 7
Width: 562
GlyphClass: 2
Flags: W
LayerCount: 2
Fore
SplineSet
227 820 m 1,0,1
 233 847 233 847 249.5 862.5 c 128,-1,2
 266 878 266 878 283 878 c 256,3,4
 300 878 300 878 316 865 c 128,-1,5
 332 852 332 852 340 828 c 1,6,-1
 340 792 l 1,7,8
 377 784 377 784 411 764 c 128,-1,9
 445 744 445 744 472 712 c 2,10,-1
 475 708 l 2,11,12
 487 693 487 693 487 677 c 0,13,14
 487 660 487 660 474 648.5 c 128,-1,15
 461 637 461 637 441 637 c 256,16,17
 421 637 421 637 396 656 c 1,18,-1
 387 666 l 2,19,20
 379 675 379 675 368.5 683.5 c 128,-1,21
 358 692 358 692 345 699 c 0,22,23
 342 699 342 699 340 701 c 1,24,-1
 340 503 l 1,25,26
 380 496 380 496 413 476 c 128,-1,27
 446 456 446 456 469.5 428 c 128,-1,28
 493 400 493 400 505.5 366 c 128,-1,29
 518 332 518 332 518 297 c 0,30,31
 518 258 518 258 504.5 223 c 128,-1,32
 491 188 491 188 467.5 160 c 128,-1,33
 444 132 444 132 411.5 112.5 c 128,-1,34
 379 93 379 93 340 85 c 1,35,-1
 340 66 l 2,36,37
 340 32 340 32 321.5 15 c 128,-1,38
 303 -2 303 -2 284 -2 c 0,39,40
 264 -2 264 -2 247.5 13.5 c 128,-1,41
 231 29 231 29 227 60 c 1,42,-1
 227 90 l 1,43,44
 185 99 185 99 154 119.5 c 128,-1,45
 123 140 123 140 97 169 c 1,46,-1
 95 172 l 2,47,48
 90 180 90 180 88 188 c 128,-1,49
 86 196 86 196 86 201 c 0,50,51
 86 218 86 218 99 229.5 c 128,-1,52
 112 241 112 241 131 241 c 0,53,54
 140 241 140 241 151 237.5 c 128,-1,55
 162 234 162 234 175 226 c 2,56,-1
 181 220 l 2,57,58
 188 212 188 212 199.5 202 c 128,-1,59
 211 192 211 192 227 184 c 1,60,-1
 227 429 l 1,61,62
 193 436 193 436 162 452.5 c 128,-1,63
 131 469 131 469 107.5 493 c 128,-1,64
 84 517 84 517 70 547 c 128,-1,65
 56 577 56 577 56 609 c 256,66,67
 56 641 56 641 70.5 669.5 c 128,-1,68
 85 698 85 698 109 721.5 c 128,-1,69
 133 745 133 745 164 762 c 128,-1,70
 195 779 195 779 227 788 c 1,71,-1
 227 820 l 1,0,1
344 181 m 0,72,73
 379 199 379 199 398 228.5 c 128,-1,74
 417 258 417 258 417 293 c 0,75,76
 417 316 417 316 410 335 c 128,-1,77
 403 354 403 354 392 368.5 c 128,-1,78
 381 383 381 383 367 393 c 128,-1,79
 353 403 353 403 340 409 c 1,80,-1
 340 179 l 1,81,82
 340 179 340 179 344 181 c 0,72,73
156 604 m 0,83,84
 156 570 156 570 176.5 551.5 c 128,-1,85
 197 533 197 533 227 524 c 1,86,-1
 227 693 l 1,87,88
 198 679 198 679 177 656.5 c 128,-1,89
 156 634 156 634 156 604 c 0,83,84
EndSplineSet
Validated: 1
EndChar

StartChar: percent
Encoding: 37 37 8
Width: 562
GlyphClass: 2
Flags: W
LayerCount: 2
Fore
SplineSet
402 309 m 0,0,1
 428 309 428 309 451.5 297 c 128,-1,2
 475 285 475 285 492.5 264 c 128,-1,3
 510 243 510 243 520.5 214.5 c 128,-1,4
 531 186 531 186 531 154 c 0,5,6
 531 121 531 121 520.5 92.5 c 128,-1,7
 510 64 510 64 492.5 43 c 128,-1,8
 475 22 475 22 451.5 10 c 128,-1,9
 428 -2 428 -2 402 -2 c 0,10,11
 374 -2 374 -2 350 10 c 128,-1,12
 326 22 326 22 308.5 43 c 128,-1,13
 291 64 291 64 281 92.5 c 128,-1,14
 271 121 271 121 271 154 c 0,15,16
 271 186 271 186 281 214.5 c 128,-1,17
 291 243 291 243 308.5 264 c 128,-1,18
 326 285 326 285 350 297 c 128,-1,19
 374 309 374 309 402 309 c 0,0,1
402 209 m 0,20,21
 388 209 388 209 377 193.5 c 128,-1,22
 366 178 366 178 366 154 c 0,23,24
 366 131 366 131 377 114.5 c 128,-1,25
 388 98 388 98 402 98 c 0,26,27
 413 98 413 98 423.5 114.5 c 128,-1,28
 434 131 434 131 434 154 c 0,29,30
 434 178 434 178 423.5 193.5 c 128,-1,31
 413 209 413 209 402 209 c 0,20,21
157 877 m 0,32,33
 184 877 184 877 207.5 865 c 128,-1,34
 231 853 231 853 248.5 832 c 128,-1,35
 266 811 266 811 276 782.5 c 128,-1,36
 286 754 286 754 286 722 c 0,37,38
 286 689 286 689 276 660.5 c 128,-1,39
 266 632 266 632 248.5 611 c 128,-1,40
 231 590 231 590 207.5 578 c 128,-1,41
 184 566 184 566 157 566 c 0,42,43
 129 566 129 566 105 578 c 128,-1,44
 81 590 81 590 63.5 611 c 128,-1,45
 46 632 46 632 36 660.5 c 128,-1,46
 26 689 26 689 26 722 c 0,47,48
 26 754 26 754 36 782.5 c 128,-1,49
 46 811 46 811 63.5 832 c 128,-1,50
 81 853 81 853 105 865 c 128,-1,51
 129 877 129 877 157 877 c 0,32,33
157 777 m 0,52,53
 143 777 143 777 132.5 761.5 c 128,-1,54
 122 746 122 746 122 722 c 0,55,56
 122 699 122 699 132.5 682.5 c 128,-1,57
 143 666 143 666 157 666 c 0,58,59
 169 666 169 666 179.5 682.5 c 128,-1,60
 190 699 190 699 190 722 c 0,61,62
 190 746 190 746 179.5 761.5 c 128,-1,63
 169 777 169 777 157 777 c 0,52,53
122 27 m 0,64,65
 225 219 225 219 327 409.5 c 128,-1,66
 429 600 429 600 532 792 c 0,67,68
 538 807 538 807 538 821 c 0,69,70
 538 845 538 845 522.5 859.5 c 128,-1,71
 507 874 507 874 487 874 c 0,72,73
 473 874 473 874 458.5 866 c 128,-1,74
 444 858 444 858 434 840 c 0,75,76
 330 648 330 648 228.5 457.5 c 128,-1,77
 127 267 127 267 24 75 c 0,78,79
 23 70 23 70 22.5 66 c 128,-1,80
 22 62 22 62 22 57 c 0,81,82
 22 31 22 31 37 16 c 128,-1,83
 52 1 52 1 72 1 c 0,84,85
 84 1 84 1 97 7 c 128,-1,86
 110 13 110 13 122 27 c 0,64,65
EndSplineSet
Validated: 9
EndChar

StartChar: ampersand
Encoding: 38 38 9
Width: 562
GlyphClass: 2
Flags: W
LayerCount: 2
Fore
SplineSet
77 687 m 0,0,1
 77 724 77 724 89.5 758.5 c 128,-1,2
 102 793 102 793 124 819.5 c 128,-1,3
 146 846 146 846 174 861.5 c 128,-1,4
 202 877 202 877 234 877 c 0,5,6
 307 877 307 877 349.5 830.5 c 128,-1,7
 392 784 392 784 392 706 c 0,8,9
 392 678 392 678 388 654.5 c 128,-1,10
 384 631 384 631 372.5 605.5 c 128,-1,11
 361 580 361 580 340 550.5 c 128,-1,12
 319 521 319 521 284 481 c 1,13,14
 296 460 296 460 306 443 c 128,-1,15
 316 426 316 426 327 407.5 c 128,-1,16
 338 389 338 389 351.5 367 c 128,-1,17
 365 345 365 345 384 315 c 1,18,19
 388 356 388 356 390 376.5 c 128,-1,20
 392 397 392 397 392 400 c 2,21,-1
 392 430 l 2,22,23
 392 441 392 441 391 446 c 0,24,25
 398 475 398 475 414.5 487.5 c 128,-1,26
 431 500 431 500 448 500 c 0,27,28
 474 500 474 500 490.5 482.5 c 128,-1,29
 507 465 507 465 507 426 c 0,30,31
 507 395 507 395 504 359 c 128,-1,32
 501 323 501 323 496 291 c 0,33,34
 494 275 494 275 487 244 c 128,-1,35
 480 213 480 213 469 175 c 1,36,37
 484 151 484 151 499.5 125.5 c 128,-1,38
 515 100 515 100 529 79 c 1,39,-1
 529 80 l 1,40,41
 535 66 535 66 535 51 c 0,42,43
 535 26 535 26 520 12.5 c 128,-1,44
 505 -1 505 -1 482 -1 c 0,45,46
 473 -1 473 -1 462.5 1.5 c 128,-1,47
 452 4 452 4 439 12 c 1,48,-1
 401 70 l 1,49,50
 362 41 362 41 314 24 c 128,-1,51
 266 7 266 7 230 7 c 0,52,53
 186 7 186 7 148.5 23 c 128,-1,54
 111 39 111 39 83.5 68.5 c 128,-1,55
 56 98 56 98 40.5 139 c 128,-1,56
 25 180 25 180 25 231 c 0,57,58
 25 264 25 264 35 300 c 128,-1,59
 45 336 45 336 62 371 c 0,60,61
 70 387 70 387 90.5 415.5 c 128,-1,62
 111 444 111 444 146 482 c 1,63,64
 101 562 101 562 90 596 c 1,65,-1
 90 595 l 1,66,67
 77 635 77 635 77 687 c 0,0,1
231 117 m 0,68,69
 260 117 260 117 295 133 c 1,70,-1
 294 133 l 1,71,72
 302 136 302 136 313.5 144.5 c 128,-1,73
 325 153 325 153 340 170 c 1,74,75
 308 223 308 223 276 273.5 c 128,-1,76
 244 324 244 324 204 388 c 1,77,78
 174 347 174 347 158 308 c 128,-1,79
 142 269 142 269 142 241 c 0,80,81
 142 187 142 187 165 152 c 128,-1,82
 188 117 188 117 231 117 c 0,68,69
194 692 m 0,83,84
 194 662 194 662 225 574 c 1,85,86
 242 603 242 603 250.5 617 c 128,-1,87
 259 631 259 631 262.5 638.5 c 128,-1,88
 266 646 266 646 267.5 651.5 c 128,-1,89
 269 657 269 657 272 669 c 0,90,91
 274 677 274 677 275 686 c 128,-1,92
 276 695 276 695 276 703 c 0,93,94
 276 732 276 732 266 750 c 128,-1,95
 256 768 256 768 236 768 c 0,96,97
 217 768 217 768 205.5 748.5 c 128,-1,98
 194 729 194 729 194 692 c 0,83,84
EndSplineSet
Validated: 1
EndChar

StartChar: quotesingle
Encoding: 39 39 10
Width: 562
GlyphClass: 2
Flags: W
LayerCount: 2
Fore
SplineSet
224 823 m 1,0,1
 229 849 229 849 245 862.5 c 128,-1,2
 261 876 261 876 279 876 c 0,3,4
 296 876 296 876 311 864 c 128,-1,5
 326 852 326 852 334 828 c 1,6,-1
 334 624 l 2,7,8
 332 593 332 593 315.5 577.5 c 128,-1,9
 299 562 299 562 279 562 c 0,10,11
 260 562 260 562 244 576 c 128,-1,12
 228 590 228 590 224 619 c 1,13,-1
 224 823 l 1,14,-1
 224 823 l 1,0,1
EndSplineSet
Validated: 5
EndChar

StartChar: parenleft
Encoding: 40 40 11
Width: 562
GlyphClass: 2
Flags: W
LayerCount: 2
Fore
SplineSet
396 779 m 1,0,1
 367 763 367 763 346 728.5 c 128,-1,2
 325 694 325 694 311 647.5 c 128,-1,3
 297 601 297 601 290 546.5 c 128,-1,4
 283 492 283 492 283 437 c 0,5,6
 283 348 283 348 300.5 270 c 128,-1,7
 318 192 318 192 353 141 c 1,8,-1
 352 141 l 1,9,10
 363 125 363 125 374 114 c 128,-1,11
 385 103 385 103 400 95 c 1,12,13
 408 83 408 83 413 72 c 128,-1,14
 418 61 418 61 418 51 c 0,15,16
 418 30 418 30 405 14 c 128,-1,17
 392 -2 392 -2 369 -2 c 0,18,19
 363 -2 363 -2 355 -0.5 c 128,-1,20
 347 1 347 1 339 5 c 1,21,-1
 340 4 l 1,22,23
 296 28 296 28 263.5 72 c 128,-1,24
 231 116 231 116 209.5 174 c 128,-1,25
 188 232 188 232 177.5 300.5 c 128,-1,26
 167 369 167 369 167 442 c 0,27,28
 167 541 167 541 188.5 632.5 c 128,-1,29
 210 724 210 724 254 792 c 1,30,-1
 253 792 l 1,31,32
 277 827 277 827 306 852.5 c 128,-1,33
 335 878 335 878 364 878 c 0,34,35
 389 878 389 878 405 863 c 128,-1,36
 421 848 421 848 421 827 c 0,37,38
 421 803 421 803 399 782 c 2,39,-1
 396 779 l 1,0,1
EndSplineSet
Validated: 1
EndChar

StartChar: parenright
Encoding: 41 41 12
Width: 562
GlyphClass: 2
Flags: W
LayerCount: 2
Fore
SplineSet
189 782 m 2,0,1
 167 803 167 803 167 827 c 0,2,3
 167 848 167 848 183 863 c 128,-1,4
 199 878 199 878 224 878 c 0,5,6
 253 878 253 878 282 852.5 c 128,-1,7
 311 827 311 827 335 792 c 1,8,-1
 334 792 l 1,9,10
 378 724 378 724 399.5 632.5 c 128,-1,11
 421 541 421 541 421 442 c 0,12,13
 421 369 421 369 410.5 300.5 c 128,-1,14
 400 232 400 232 378.5 174 c 128,-1,15
 357 116 357 116 324.5 72 c 128,-1,16
 292 28 292 28 248 4 c 1,17,-1
 249 5 l 1,18,19
 241 1 241 1 233 -0.5 c 128,-1,20
 225 -2 225 -2 219 -2 c 0,21,22
 196 -2 196 -2 183 14 c 128,-1,23
 170 30 170 30 170 51 c 0,24,25
 170 61 170 61 175 72 c 128,-1,26
 180 83 180 83 188 95 c 1,27,28
 203 103 203 103 214 114 c 128,-1,29
 225 125 225 125 236 141 c 1,30,-1
 235 141 l 1,31,32
 270 192 270 192 287.5 270 c 128,-1,33
 305 348 305 348 305 437 c 0,34,35
 305 492 305 492 298 546.5 c 128,-1,36
 291 601 291 601 277 647.5 c 128,-1,37
 263 694 263 694 241.5 728.5 c 128,-1,38
 220 763 220 763 192 779 c 1,39,-1
 189 782 l 2,0,1
EndSplineSet
Validated: 1
EndChar

StartChar: asterisk
Encoding: 42 42 13
Width: 562
GlyphClass: 2
Flags: W
LayerCount: 2
Fore
SplineSet
132 602 m 0,0,1
 123 620 123 620 123 636 c 0,2,3
 123 659 123 659 138.5 673.5 c 128,-1,4
 154 688 154 688 174 688 c 0,5,6
 192 688 192 688 206.5 675.5 c 128,-1,7
 221 663 221 663 234 644.5 c 128,-1,8
 247 626 247 626 258 604 c 128,-1,9
 269 582 269 582 280 564 c 1,10,11
 290 582 290 582 301.5 604 c 128,-1,12
 313 626 313 626 325.5 644.5 c 128,-1,13
 338 663 338 663 353 675.5 c 128,-1,14
 368 688 368 688 385 688 c 0,15,16
 405 688 405 688 420.5 673.5 c 128,-1,17
 436 659 436 659 436 635 c 0,18,19
 436 623 436 623 429.5 607 c 128,-1,20
 423 591 423 591 413.5 574 c 128,-1,21
 404 557 404 557 393.5 540.5 c 128,-1,22
 383 524 383 524 375 511 c 1,23,-1
 492 511 l 1,24,25
 516 503 516 503 528 488 c 128,-1,26
 540 473 540 473 540 456 c 0,27,28
 540 438 540 438 526.5 422 c 128,-1,29
 513 406 513 406 487 401 c 1,30,-1
 375 401 l 1,31,-1
 432 302 l 2,32,33
 434 295 434 295 435 289 c 128,-1,34
 436 283 436 283 436 278 c 0,35,36
 436 253 436 253 421 238.5 c 128,-1,37
 406 224 406 224 386 224 c 0,38,39
 367 224 367 224 352 236.5 c 128,-1,40
 337 249 337 249 324 267.5 c 128,-1,41
 311 286 311 286 300.5 307.5 c 128,-1,42
 290 329 290 329 280 347 c 1,43,44
 269 329 269 329 258 307.5 c 128,-1,45
 247 286 247 286 234.5 267.5 c 128,-1,46
 222 249 222 249 207 236.5 c 128,-1,47
 192 224 192 224 174 224 c 0,48,49
 154 224 154 224 139 239 c 128,-1,50
 124 254 124 254 124 280 c 0,51,52
 124 292 124 292 130.5 307 c 128,-1,53
 137 322 137 322 147 338.5 c 128,-1,54
 157 355 157 355 167 371 c 128,-1,55
 177 387 177 387 185 401 c 1,56,-1
 77 401 l 1,57,58
 48 405 48 405 34 421 c 128,-1,59
 20 437 20 437 20 456 c 0,60,61
 20 476 20 476 35.5 493.5 c 128,-1,62
 51 511 51 511 82 511 c 2,63,-1
 184 511 l 1,64,65
 171 534 171 534 158 556.5 c 128,-1,66
 145 579 145 579 132 602 c 0,0,1
EndSplineSet
Validated: 1
EndChar

StartChar: plus
Encoding: 43 43 14
Width: 562
GlyphClass: 2
Flags: W
LayerCount: 2
Fore
SplineSet
77 403 m 1,0,1
 48 407 48 407 34 423 c 128,-1,2
 20 439 20 439 20 458 c 0,3,4
 20 478 20 478 35.5 495.5 c 128,-1,5
 51 513 51 513 82 513 c 2,6,-1
 225 513 l 1,7,-1
 225 661 l 1,8,9
 229 690 229 690 245 704 c 128,-1,10
 261 718 261 718 280 718 c 0,11,12
 300 718 300 718 317.5 702.5 c 128,-1,13
 335 687 335 687 335 656 c 2,14,-1
 335 513 l 1,15,-1
 492 513 l 1,16,17
 516 505 516 505 528 490 c 128,-1,18
 540 475 540 475 540 458 c 0,19,20
 540 440 540 440 526.5 424 c 128,-1,21
 513 408 513 408 487 403 c 1,22,-1
 335 403 l 1,23,-1
 335 246 l 1,24,25
 327 222 327 222 312 210 c 128,-1,26
 297 198 297 198 280 198 c 0,27,28
 262 198 262 198 246 211.5 c 128,-1,29
 230 225 230 225 225 251 c 1,30,-1
 225 403 l 1,31,-1
 77 403 l 1,32,-1
 77 403 l 1,0,1
EndSplineSet
Validated: 5
EndChar

StartChar: comma
Encoding: 44 44 15
Width: 562
GlyphClass: 2
Flags: W
LayerCount: 2
Fore
SplineSet
262 -72 m 1,0,1
 239 -98 239 -98 212 -98 c 0,2,3
 192 -98 192 -98 177 -83 c 128,-1,4
 162 -68 162 -68 162 -42 c 0,5,6
 162 -37 162 -37 162.5 -33 c 128,-1,7
 163 -29 163 -29 164 -24 c 0,8,9
 183 9 183 9 201.5 42 c 128,-1,10
 220 75 220 75 240 108 c 0,11,12
 251 126 251 126 265 134.5 c 128,-1,13
 279 143 279 143 293 143 c 0,14,15
 313 143 313 143 328.5 128 c 128,-1,16
 344 113 344 113 344 89 c 0,17,18
 344 75 344 75 338 60 c 0,19,20
 319 27 319 27 300.5 -6 c 128,-1,21
 282 -39 282 -39 262 -72 c 1,0,1
EndSplineSet
Validated: 1
EndChar

StartChar: hyphen
Encoding: 45 45 16
Width: 562
GlyphClass: 2
Flags: W
LayerCount: 2
Fore
SplineSet
77 403 m 1,0,1
 48 407 48 407 34 423 c 128,-1,2
 20 439 20 439 20 458 c 0,3,4
 20 478 20 478 35.5 495.5 c 128,-1,5
 51 513 51 513 82 513 c 2,6,-1
 492 513 l 1,7,8
 516 505 516 505 528 490 c 128,-1,9
 540 475 540 475 540 458 c 0,10,11
 540 440 540 440 526.5 424 c 128,-1,12
 513 408 513 408 487 403 c 1,13,-1
 77 403 l 1,14,-1
 77 403 l 1,0,1
EndSplineSet
Validated: 5
EndChar

StartChar: period
Encoding: 46 46 17
Width: 562
GlyphClass: 2
Flags: W
LayerCount: 2
Fore
SplineSet
206 78 m 256,0,1
 206 110 206 110 229 133 c 128,-1,2
 252 156 252 156 284 156 c 256,3,4
 316 156 316 156 339 133 c 128,-1,5
 362 110 362 110 362 78 c 256,6,7
 362 46 362 46 339 23 c 128,-1,8
 316 0 316 0 284 0 c 256,9,10
 252 0 252 0 229 23 c 128,-1,11
 206 46 206 46 206 78 c 256,0,1
EndSplineSet
Validated: 1
EndChar

StartChar: slash
Encoding: 47 47 18
Width: 562
GlyphClass: 2
Flags: W
LayerCount: 2
Fore
SplineSet
122 27 m 0,0,1
 110 13 110 13 97 7 c 128,-1,2
 84 1 84 1 72 1 c 0,3,4
 52 1 52 1 37 16 c 128,-1,5
 22 31 22 31 22 57 c 0,6,7
 22 62 22 62 22.5 66 c 128,-1,8
 23 70 23 70 24 75 c 0,9,10
 127 267 127 267 228.5 457.5 c 128,-1,11
 330 648 330 648 434 840 c 0,12,13
 444 858 444 858 458.5 866 c 128,-1,14
 473 874 473 874 487 874 c 0,15,16
 507 874 507 874 522.5 859.5 c 128,-1,17
 538 845 538 845 538 821 c 0,18,19
 538 807 538 807 532 792 c 0,20,21
 429 600 429 600 327 409.5 c 128,-1,22
 225 219 225 219 122 27 c 0,0,1
EndSplineSet
Validated: 1
EndChar

StartChar: zero
Encoding: 48 48 19
Width: 562
GlyphClass: 2
Flags: W
LayerCount: 2
Fore
SplineSet
535 272 m 2,0,1
 535 212 535 212 520 159.5 c 128,-1,2
 505 107 505 107 473.5 67.5 c 128,-1,3
 442 28 442 28 393.5 5.5 c 128,-1,4
 345 -17 345 -17 278 -17 c 0,5,6
 243 -17 243 -17 213 -10 c 128,-1,7
 183 -3 183 -3 157 10 c 1,8,9
 135 -12 135 -12 111 -12 c 0,10,11
 91 -12 91 -12 76 3 c 128,-1,12
 61 18 61 18 61 44 c 0,13,14
 61 54 61 54 63.5 62 c 128,-1,15
 66 70 66 70 74 87 c 1,16,17
 27 162 27 162 25 265 c 2,18,-1
 25 589 l 2,19,20
 25 655 25 655 40.5 710.5 c 128,-1,21
 56 766 56 766 87 806.5 c 128,-1,22
 118 847 118 847 165.5 870 c 128,-1,23
 213 893 213 893 278 893 c 0,24,25
 316 893 316 893 347.5 885.5 c 128,-1,26
 379 878 379 878 405 864 c 1,27,28
 415 877 415 877 427 883 c 128,-1,29
 439 889 439 889 451 889 c 0,30,31
 471 889 471 889 486.5 874.5 c 128,-1,32
 502 860 502 860 502 835 c 0,33,34
 502 824 502 824 499 813.5 c 128,-1,35
 496 803 496 803 487 785 c 1,36,37
 510 747 510 747 521.5 698 c 128,-1,38
 533 649 533 649 535 593 c 2,39,-1
 535 272 l 2,0,1
280 778 m 0,40,41
 242 778 242 778 215.5 760.5 c 128,-1,42
 189 743 189 743 172 713.5 c 128,-1,43
 155 684 155 684 147.5 645 c 128,-1,44
 140 606 140 606 140 564 c 2,45,-1
 140 296 l 2,46,47
 140 273 140 273 143 251 c 1,48,49
 168 310 168 310 196 377 c 128,-1,50
 224 444 224 444 252.5 511 c 128,-1,51
 281 578 281 578 307 640 c 128,-1,52
 333 702 333 702 354 751 c 1,53,54
 322 778 322 778 280 778 c 0,40,41
421 592 m 2,55,56
 420 598 420 598 419.5 605 c 128,-1,57
 419 612 419 612 417 618 c 1,58,-1
 207 121 l 1,59,60
 237 97 237 97 280 97 c 0,61,62
 317 97 317 97 343.5 115.5 c 128,-1,63
 370 134 370 134 387 163.5 c 128,-1,64
 404 193 404 193 412.5 229.5 c 128,-1,65
 421 266 421 266 421 301 c 2,66,-1
 421 592 l 2,55,56
EndSplineSet
EndChar

StartChar: one
Encoding: 49 49 20
Width: 562
GlyphClass: 2
Flags: W
LayerCount: 2
Fore
SplineSet
81 -2 m 5,0,1
 49 3 49 3 34 19 c 132,-1,2
 19 35 19 35 19 55 c 4,3,4
 19 76 19 76 35 92.5 c 4,5,6
 53 111 53 111 86 111 c 6,7,-1
 243 111 l 1,8,-1
 243 700 l 1,9,10
 215 671 215 671 196 661.5 c 128,-1,11
 177 652 177 652 166 652 c 0,12,13
 144 652 144 652 129.5 666.5 c 128,-1,14
 115 681 115 681 115 703 c 0,15,16
 115 712 115 712 118 723.5 c 0,17,18
 121 736 121 736 129 746 c 2,19,-1
 133 751 l 2,20,21
 141 761 141 761 174 795.5 c 0,22,23
 197 820 197 820 220.5 841.5 c 128,-1,24
 244 863 244 863 266 877.5 c 128,-1,25
 288 892 288 892 304 892 c 0,26,27
 321 892 321 892 334.5 879.5 c 128,-1,28
 348 867 348 867 356 844 c 1,29,-1
 356 111 l 1,30,-1
 513 111 l 1,31,32
 539 103 539 103 550.5 87.5 c 128,-1,33
 562 72 562 72 562 54 c 256,34,35
 562 36 562 36 547 20 c 128,-1,36
 532 4 532 4 505 -2 c 1,37,-1
 81 -2 l 5,0,1
EndSplineSet
Validated: 1
EndChar

StartChar: two
Encoding: 50 50 21
Width: 562
GlyphClass: 2
Flags: W
LayerCount: 2
Fore
SplineSet
143 690 m 2,0,1
 129 673 129 673 116.5 668.5 c 128,-1,2
 104 664 104 664 90 664 c 0,3,4
 66 664 66 664 50 680.5 c 128,-1,5
 34 697 34 697 34 725 c 0,6,7
 34 745 34 745 45 766 c 128,-1,8
 56 787 56 787 73 805.5 c 128,-1,9
 90 824 90 824 110.5 839.5 c 128,-1,10
 131 855 131 855 150 864 c 0,11,12
 209 892 209 892 271 892 c 0,13,14
 322 892 322 892 369 874 c 128,-1,15
 416 856 416 856 453 824.5 c 128,-1,16
 490 793 490 793 512 749.5 c 128,-1,17
 534 706 534 706 534 654 c 0,18,19
 534 623 534 623 524 593.5 c 128,-1,20
 514 564 514 564 498.5 536.5 c 128,-1,21
 483 509 483 509 464 482.5 c 128,-1,22
 445 456 445 456 428 430 c 0,23,24
 421 420 421 420 404 396 c 128,-1,25
 387 372 387 372 364.5 340.5 c 128,-1,26
 342 309 342 309 317 274 c 128,-1,27
 292 239 292 239 269 207 c 128,-1,28
 246 175 246 175 228 149.5 c 128,-1,29
 210 124 210 124 202 111 c 1,30,-1
 437 111 l 2,31,32
 466 109 466 109 478.5 90.5 c 128,-1,33
 491 72 491 72 491 54 c 0,34,35
 491 45 491 45 487 35.5 c 128,-1,36
 483 26 483 26 474.5 18 c 128,-1,37
 466 10 466 10 454 4.5 c 128,-1,38
 442 -1 442 -1 427 -2 c 2,39,-1
 92 -2 l 2,40,41
 60 1 60 1 42.5 15 c 128,-1,42
 25 29 25 29 25 49 c 0,43,44
 25 67 25 67 42 92 c 0,45,46
 67 129 67 129 87 157.5 c 128,-1,47
 107 186 107 186 126 214 c 128,-1,48
 145 242 145 242 167 273.5 c 128,-1,49
 189 305 189 305 219.5 348.5 c 128,-1,50
 250 392 250 392 292 451.5 c 128,-1,51
 334 511 334 511 393 594 c 0,52,53
 398 603 398 603 401 609 c 128,-1,54
 404 615 404 615 405.5 621.5 c 128,-1,55
 407 628 407 628 407.5 636 c 128,-1,56
 408 644 408 644 408 656 c 0,57,58
 408 683 408 683 396 706 c 128,-1,59
 384 729 384 729 365 745.5 c 128,-1,60
 346 762 346 762 322.5 771.5 c 128,-1,61
 299 781 299 781 275 781 c 0,62,63
 234 781 234 781 200 757 c 128,-1,64
 166 733 166 733 146 693 c 1,65,-1
 143 690 l 2,0,1
EndSplineSet
Validated: 1
EndChar

StartChar: three
Encoding: 51 51 22
Width: 562
GlyphClass: 2
Flags: W
LayerCount: 2
Fore
SplineSet
25 197 m 2,0,1
 25 227 25 227 43 243.5 c 128,-1,2
 61 260 61 260 84 260 c 0,3,4
 103 260 103 260 121 247 c 128,-1,5
 139 234 139 234 147 208 c 1,6,-1
 146 209 l 1,7,8
 155 161 155 161 186 129.5 c 128,-1,9
 217 98 217 98 269 98 c 0,10,11
 308 98 308 98 335 111 c 128,-1,12
 362 124 362 124 379.5 145 c 128,-1,13
 397 166 397 166 404.5 192 c 128,-1,14
 412 218 412 218 412 243 c 0,15,16
 412 289 412 289 398.5 320.5 c 128,-1,17
 385 352 385 352 362 371.5 c 128,-1,18
 339 391 339 391 308 400.5 c 128,-1,19
 277 410 277 410 242 413 c 1,20,-1
 243 413 l 1,21,22
 208 418 208 418 191.5 433.5 c 128,-1,23
 175 449 175 449 175 468 c 0,24,25
 175 475 175 475 179 485 c 128,-1,26
 183 495 183 495 191.5 504 c 128,-1,27
 200 513 200 513 212 519.5 c 128,-1,28
 224 526 224 526 240 526 c 0,29,30
 269 530 269 530 297 536.5 c 128,-1,31
 325 543 325 543 346.5 557 c 128,-1,32
 368 571 368 571 381 595 c 128,-1,33
 394 619 394 619 394 657 c 0,34,35
 394 677 394 677 383 699 c 128,-1,36
 372 721 372 721 354.5 739 c 128,-1,37
 337 757 337 757 314.5 768.5 c 128,-1,38
 292 780 292 780 269 780 c 0,39,40
 247 780 247 780 228 771 c 128,-1,41
 209 762 209 762 194 748.5 c 128,-1,42
 179 735 179 735 167.5 718 c 128,-1,43
 156 701 156 701 150 685 c 0,44,45
 142 659 142 659 124 648 c 128,-1,46
 106 637 106 637 88 637 c 0,47,48
 65 637 65 637 47 652.5 c 128,-1,49
 29 668 29 668 29 697 c 0,50,51
 29 703 29 703 32 717 c 1,52,-1
 31 716 l 1,53,54
 60 802 60 802 124 847 c 128,-1,55
 188 892 188 892 268 892 c 0,56,57
 318 892 318 892 363 872 c 128,-1,58
 408 852 408 852 442.5 818 c 128,-1,59
 477 784 477 784 497.5 740.5 c 128,-1,60
 518 697 518 697 518 650 c 0,61,62
 518 605 518 605 496.5 558.5 c 128,-1,63
 475 512 475 512 418 474 c 1,64,65
 477 429 477 429 506 370 c 128,-1,66
 535 311 535 311 535 245 c 0,67,68
 535 194 535 194 517.5 147.5 c 128,-1,69
 500 101 500 101 466 65 c 128,-1,70
 432 29 432 29 383.5 7.5 c 128,-1,71
 335 -14 335 -14 273 -14 c 0,72,73
 229 -14 229 -14 188 -1.5 c 128,-1,74
 147 11 147 11 113.5 36 c 128,-1,75
 80 61 80 61 57 98 c 128,-1,76
 34 135 34 135 26 183 c 1,77,-1
 25 197 l 2,0,1
EndSplineSet
Validated: 1
EndChar

StartChar: four
Encoding: 52 52 23
Width: 562
GlyphClass: 2
Flags: W
LayerCount: 2
Fore
SplineSet
77 245 m 2,0,1
 54 245 54 245 37.5 260 c 128,-1,2
 21 275 21 275 21 298 c 0,3,4
 21 315 21 315 33 336 c 0,5,6
 119 463 119 463 203.5 588 c 128,-1,7
 288 713 288 713 374 841 c 1,8,9
 398 860 398 860 419 860 c 0,10,11
 436 860 436 860 450 847.5 c 128,-1,12
 464 835 464 835 471 812 c 1,13,-1
 471 355 l 1,14,-1
 492 355 l 1,15,16
 516 347 516 347 528 332 c 128,-1,17
 540 317 540 317 540 300 c 0,18,19
 540 282 540 282 526.5 266 c 128,-1,20
 513 250 513 250 487 245 c 1,21,-1
 471 245 l 1,22,-1
 471 62 l 2,23,24
 469 31 469 31 452.5 15.5 c 128,-1,25
 436 0 436 0 416 0 c 0,26,27
 397 0 397 0 381 14 c 128,-1,28
 365 28 365 28 361 57 c 1,29,-1
 361 245 l 1,30,-1
 77 245 l 2,0,1
361 626 m 1,31,32
 315 557 315 557 269.5 490 c 128,-1,33
 224 423 224 423 178 355 c 1,34,-1
 361 355 l 1,35,-1
 361 626 l 1,36,-1
 361 626 l 1,31,32
EndSplineSet
Validated: 5
EndChar

StartChar: five
Encoding: 53 53 24
Width: 562
GlyphClass: 2
Flags: W
LayerCount: 2
Fore
SplineSet
468 876 m 1,0,1
 494 868 494 868 505.5 852.5 c 128,-1,2
 517 837 517 837 517 819 c 0,3,4
 517 802 517 802 502 785.5 c 128,-1,5
 487 769 487 769 460 763 c 1,6,-1
 139 763 l 1,7,-1
 139 541 l 1,8,9
 167 549 167 549 196.5 553 c 128,-1,10
 226 557 226 557 247 557 c 0,11,12
 302 557 302 557 354 534.5 c 128,-1,13
 406 512 406 512 446.5 473.5 c 128,-1,14
 487 435 487 435 511.5 383.5 c 128,-1,15
 536 332 536 332 536 274 c 0,16,17
 536 213 536 213 512 160 c 128,-1,18
 488 107 488 107 447.5 67.5 c 128,-1,19
 407 28 407 28 353.5 5.5 c 128,-1,20
 300 -17 300 -17 240 -17 c 0,21,22
 218 -17 218 -17 192.5 -12.5 c 128,-1,23
 167 -8 167 -8 142.5 0 c 128,-1,24
 118 8 118 8 96.5 18.5 c 128,-1,25
 75 29 75 29 61 42 c 1,26,-1
 62 42 l 1,27,-1
 51 53 l 2,28,29
 26 78 26 78 26 103 c 0,30,31
 26 126 26 126 41 140.5 c 128,-1,32
 56 155 56 155 78 155 c 0,33,34
 97 155 97 155 124 138 c 0,35,36
 159 115 159 115 185.5 105.5 c 128,-1,37
 212 96 212 96 246 96 c 256,38,39
 280 96 280 96 312 109.5 c 128,-1,40
 344 123 344 123 368 146.5 c 128,-1,41
 392 170 392 170 406.5 202 c 128,-1,42
 421 234 421 234 421 270 c 0,43,44
 421 307 421 307 406.5 339.5 c 128,-1,45
 392 372 392 372 367 395 c 128,-1,46
 342 418 342 418 310 431.5 c 128,-1,47
 278 445 278 445 244 445 c 0,48,49
 219 445 219 445 195 438.5 c 128,-1,50
 171 432 171 432 150 424.5 c 128,-1,51
 129 417 129 417 110.5 411 c 128,-1,52
 92 405 92 405 77 405 c 0,53,54
 57 405 57 405 42.5 418 c 128,-1,55
 28 431 28 431 25 460 c 2,56,-1
 25 820 l 1,57,58
 32 848 32 848 46.5 862 c 128,-1,59
 61 876 61 876 92 876 c 2,60,-1
 468 876 l 1,0,1
EndSplineSet
Validated: 1
EndChar

StartChar: six
Encoding: 54 54 25
Width: 562
GlyphClass: 2
Flags: W
LayerCount: 2
Fore
SplineSet
450 763 m 2,0,1
 439 765 439 765 410.5 765 c 128,-1,2
 382 765 382 765 340 765 c 0,3,4
 313 765 313 765 277.5 754.5 c 128,-1,5
 242 744 242 744 210.5 724.5 c 128,-1,6
 179 705 179 705 157 677 c 128,-1,7
 135 649 135 649 135 614 c 2,8,-1
 135 527 l 1,9,10
 151 535 151 535 171 543 c 128,-1,11
 191 551 191 551 211 557 c 128,-1,12
 231 563 231 563 249 567 c 128,-1,13
 267 571 267 571 280 571 c 0,14,15
 330 571 330 571 382 553.5 c 128,-1,16
 434 536 434 536 466 504 c 1,17,-1
 466 505 l 1,18,19
 498 472 498 472 516.5 430 c 128,-1,20
 535 388 535 388 535 340 c 2,21,-1
 535 216 l 2,22,23
 535 166 535 166 516 123 c 128,-1,24
 497 80 497 80 463 49 c 128,-1,25
 429 18 429 18 382 0.5 c 128,-1,26
 335 -17 335 -17 280 -17 c 256,27,28
 225 -17 225 -17 178.5 0.5 c 128,-1,29
 132 18 132 18 97.5 49 c 128,-1,30
 63 80 63 80 43.5 123 c 128,-1,31
 24 166 24 166 24 216 c 2,32,-1
 24 607 l 2,33,34
 24 655 24 655 42.5 700.5 c 128,-1,35
 61 746 61 746 93 778 c 0,36,37
 109 794 109 794 132.5 811.5 c 128,-1,38
 156 829 156 829 187 843 c 128,-1,39
 218 857 218 857 256 866 c 128,-1,40
 294 875 294 875 340 875 c 2,41,-1
 376 875 l 2,42,43
 413 875 413 875 439 874 c 128,-1,44
 465 873 465 873 482 867.5 c 128,-1,45
 499 862 499 862 507 850.5 c 128,-1,46
 515 839 515 839 515 818 c 0,47,48
 515 794 515 794 497.5 777.5 c 128,-1,49
 480 761 480 761 460 761 c 0,50,51
 456 761 456 761 454 762 c 2,52,-1
 450 763 l 2,0,1
135 216 m 2,53,54
 135 189 135 189 148 166.5 c 128,-1,55
 161 144 161 144 181.5 128 c 128,-1,56
 202 112 202 112 228 103 c 128,-1,57
 254 94 254 94 280 94 c 0,58,59
 305 94 305 94 331 103.5 c 128,-1,60
 357 113 357 113 378 129.5 c 128,-1,61
 399 146 399 146 412 168 c 128,-1,62
 425 190 425 190 425 216 c 2,63,-1
 425 340 l 2,64,65
 425 364 425 364 411.5 386 c 128,-1,66
 398 408 398 408 377 424.5 c 128,-1,67
 356 441 356 441 330 451 c 128,-1,68
 304 461 304 461 280 461 c 0,69,70
 254 461 254 461 228.5 452 c 128,-1,71
 203 443 203 443 182.5 426.5 c 128,-1,72
 162 410 162 410 149 388 c 128,-1,73
 136 366 136 366 135 340 c 2,74,-1
 135 216 l 2,53,54
EndSplineSet
Validated: 1
EndChar

StartChar: seven
Encoding: 55 55 26
Width: 562
GlyphClass: 2
Flags: W
LayerCount: 2
Fore
SplineSet
77 765 m 1,0,1
 48 769 48 769 34 785 c 128,-1,2
 20 801 20 801 20 820 c 0,3,4
 20 840 20 840 35.5 857.5 c 128,-1,5
 51 875 51 875 82 875 c 2,6,-1
 492 875 l 1,7,8
 518 867 518 867 528.5 851.5 c 128,-1,9
 539 836 539 836 539 809 c 1,10,11
 466 617 466 617 394 426.5 c 128,-1,12
 322 236 322 236 250 44 c 0,13,14
 241 21 241 21 226 10.5 c 128,-1,15
 211 0 211 0 195 0 c 0,16,17
 175 0 175 0 159 15 c 128,-1,18
 143 30 143 30 143 57 c 0,19,20
 143 62 143 62 143.5 66 c 128,-1,21
 144 70 144 70 145 75 c 0,22,23
 211 249 211 249 275.5 420 c 128,-1,24
 340 591 340 591 405 765 c 1,25,-1
 77 765 l 1,26,-1
 77 765 l 1,0,1
EndSplineSet
Validated: 5
EndChar

StartChar: eight
Encoding: 56 56 27
Width: 562
GlyphClass: 2
Flags: W
LayerCount: 2
Fore
SplineSet
276 -17 m 2,0,1
 218 -17 218 -17 171.5 3 c 128,-1,2
 125 23 125 23 92.5 57.5 c 128,-1,3
 60 92 60 92 42.5 138.5 c 128,-1,4
 25 185 25 185 25 238 c 0,5,6
 25 304 25 304 51 356.5 c 128,-1,7
 77 409 77 409 130 454 c 1,8,9
 50 535 50 535 50 643 c 0,10,11
 50 695 50 695 66.5 739 c 128,-1,12
 83 783 83 783 113.5 814.5 c 128,-1,13
 144 846 144 846 186.5 863.5 c 128,-1,14
 229 881 229 881 281 881 c 0,15,16
 332 881 332 881 374 863 c 128,-1,17
 416 845 416 845 446.5 813.5 c 128,-1,18
 477 782 477 782 494 738.5 c 128,-1,19
 511 695 511 695 511 643 c 0,20,21
 511 586 511 586 488.5 536.5 c 128,-1,22
 466 487 466 487 428 454 c 1,23,24
 535 368 535 368 535 238 c 0,25,26
 535 187 535 187 517.5 140.5 c 128,-1,27
 500 94 500 94 467.5 59 c 128,-1,28
 435 24 435 24 389 3.5 c 128,-1,29
 343 -17 343 -17 286 -17 c 2,30,-1
 276 -17 l 2,0,1
281 505 m 0,31,32
 339 506 339 506 364 544.5 c 128,-1,33
 389 583 389 583 389 638 c 0,34,35
 389 662 389 662 382.5 685.5 c 128,-1,36
 376 709 376 709 362.5 728 c 128,-1,37
 349 747 349 747 328.5 758.5 c 128,-1,38
 308 770 308 770 281 770 c 0,39,40
 252 770 252 770 231 758.5 c 128,-1,41
 210 747 210 747 196.5 728 c 128,-1,42
 183 709 183 709 176 685.5 c 128,-1,43
 169 662 169 662 169 638 c 0,44,45
 169 612 169 612 176 588.5 c 128,-1,46
 183 565 183 565 197 547 c 128,-1,47
 211 529 211 529 232 517.5 c 128,-1,48
 253 506 253 506 281 505 c 0,31,32
281 392 m 0,49,50
 218 392 218 392 181.5 351 c 128,-1,51
 145 310 145 310 145 243 c 0,52,53
 145 213 145 213 153.5 186 c 128,-1,54
 162 159 162 159 179 138.5 c 128,-1,55
 196 118 196 118 221.5 106 c 128,-1,56
 247 94 247 94 281 94 c 0,57,58
 314 94 314 94 339.5 106.5 c 128,-1,59
 365 119 365 119 381.5 140 c 128,-1,60
 398 161 398 161 406.5 187.5 c 128,-1,61
 415 214 415 214 415 243 c 256,62,63
 415 272 415 272 406.5 299 c 128,-1,64
 398 326 398 326 381 346 c 128,-1,65
 364 366 364 366 339 378.5 c 128,-1,66
 314 391 314 391 281 392 c 0,49,50
EndSplineSet
Validated: 1
EndChar

StartChar: nine
Encoding: 57 57 28
Width: 562
GlyphClass: 2
Flags: W
LayerCount: 2
Fore
SplineSet
94 429 m 1,0,1
 61 461 61 461 43 506.5 c 128,-1,2
 25 552 25 552 25 612 c 0,3,4
 25 673 25 673 43 723.5 c 128,-1,5
 61 774 61 774 94 809.5 c 128,-1,6
 127 845 127 845 174 864.5 c 128,-1,7
 221 884 221 884 279 884 c 0,8,9
 336 884 336 884 383 864.5 c 128,-1,10
 430 845 430 845 464 810 c 128,-1,11
 498 775 498 775 516.5 726 c 128,-1,12
 535 677 535 677 535 618 c 2,13,-1
 535 584 l 2,14,15
 535 453 535 453 509.5 350.5 c 128,-1,16
 484 248 484 248 436.5 174.5 c 128,-1,17
 389 101 389 101 320.5 55.5 c 128,-1,18
 252 10 252 10 167 -8 c 0,19,20
 160 -10 160 -10 153.5 -10.5 c 128,-1,21
 147 -11 147 -11 142 -11 c 0,22,23
 119 -11 119 -11 104 6 c 128,-1,24
 89 23 89 23 89 44 c 0,25,26
 89 60 89 60 100.5 75.5 c 128,-1,27
 112 91 112 91 135 98 c 0,28,29
 223 124 223 124 289.5 193 c 128,-1,30
 356 262 356 262 391 372 c 1,31,32
 358 361 358 361 331.5 356.5 c 128,-1,33
 305 352 305 352 279 352 c 0,34,35
 164 352 164 352 94 428 c 1,36,-1
 94 429 l 1,0,1
143 617 m 0,37,38
 143 587 143 587 154 559.5 c 128,-1,39
 165 532 165 532 183.5 511 c 128,-1,40
 202 490 202 490 227.5 477.5 c 128,-1,41
 253 465 253 465 282 465 c 0,42,43
 310 465 310 465 335.5 473.5 c 128,-1,44
 361 482 361 482 380 500.5 c 128,-1,45
 399 519 399 519 410 547.5 c 128,-1,46
 421 576 421 576 421 617 c 0,47,48
 421 650 421 650 410 678 c 128,-1,49
 399 706 399 706 380 726.5 c 128,-1,50
 361 747 361 747 335.5 758.5 c 128,-1,51
 310 770 310 770 282 770 c 0,52,53
 253 770 253 770 227.5 758.5 c 128,-1,54
 202 747 202 747 183.5 726.5 c 128,-1,55
 165 706 165 706 154 678 c 128,-1,56
 143 650 143 650 143 617 c 0,37,38
EndSplineSet
Validated: 1
EndChar

StartChar: colon
Encoding: 58 58 29
Width: 562
GlyphClass: 2
Flags: W
LayerCount: 2
Fore
SplineSet
194 572 m 256,0,1
 194 604 194 604 217 627 c 128,-1,2
 240 650 240 650 272 650 c 256,3,4
 304 650 304 650 327 627 c 128,-1,5
 350 604 350 604 350 572 c 256,6,7
 350 540 350 540 327 517 c 128,-1,8
 304 494 304 494 272 494 c 256,9,10
 240 494 240 494 217 517 c 128,-1,11
 194 540 194 540 194 572 c 256,0,1
194 87 m 256,12,13
 194 119 194 119 217 142 c 128,-1,14
 240 165 240 165 272 165 c 256,15,16
 304 165 304 165 327 142 c 128,-1,17
 350 119 350 119 350 87 c 256,18,19
 350 55 350 55 327 32 c 128,-1,20
 304 9 304 9 272 9 c 256,21,22
 240 9 240 9 217 32 c 128,-1,23
 194 55 194 55 194 87 c 256,12,13
EndSplineSet
Validated: 1
EndChar

StartChar: semicolon
Encoding: 59 59 30
Width: 562
GlyphClass: 2
Flags: W
LayerCount: 2
Fore
SplineSet
194 572 m 256,0,1
 194 604 194 604 217 627 c 128,-1,2
 240 650 240 650 272 650 c 256,3,4
 304 650 304 650 327 627 c 128,-1,5
 350 604 350 604 350 572 c 256,6,7
 350 540 350 540 327 517 c 128,-1,8
 304 494 304 494 272 494 c 256,9,10
 240 494 240 494 217 517 c 128,-1,11
 194 540 194 540 194 572 c 256,0,1
262 -72 m 1,12,13
 239 -98 239 -98 212 -98 c 0,14,15
 192 -98 192 -98 177 -83 c 128,-1,16
 162 -68 162 -68 162 -42 c 0,17,18
 162 -37 162 -37 162.5 -33 c 128,-1,19
 163 -29 163 -29 164 -24 c 0,20,21
 183 9 183 9 201.5 42 c 128,-1,22
 220 75 220 75 240 108 c 0,23,24
 251 126 251 126 265 134.5 c 128,-1,25
 279 143 279 143 293 143 c 0,26,27
 313 143 313 143 328.5 128 c 128,-1,28
 344 113 344 113 344 89 c 0,29,30
 344 75 344 75 338 60 c 0,31,32
 319 27 319 27 300.5 -6 c 128,-1,33
 282 -39 282 -39 262 -72 c 1,12,13
EndSplineSet
Validated: 1
EndChar

StartChar: less
Encoding: 60 60 31
Width: 562
GlyphClass: 2
Flags: W
LayerCount: 2
Fore
SplineSet
442 712 m 0,0,1
 458 718 458 718 472 718 c 0,2,3
 495 718 495 718 509.5 703.5 c 128,-1,4
 524 689 524 689 524 668 c 0,5,6
 524 645 524 645 506 623 c 1,7,-1
 195 436 l 1,8,-1
 494 253 l 2,9,10
 510 242 510 242 517.5 228.5 c 128,-1,11
 525 215 525 215 525 201 c 0,12,13
 525 181 525 181 510 166 c 128,-1,14
 495 151 495 151 472 151 c 0,15,16
 464 151 464 151 455.5 152.5 c 128,-1,17
 447 154 447 154 438 159 c 0,18,19
 342 218 342 218 248 275.5 c 128,-1,20
 154 333 154 333 58 391 c 1,21,22
 36 415 36 415 36 437 c 0,23,24
 36 462 36 462 62 483 c 1,25,26
 158 541 158 541 252 598 c 128,-1,27
 346 655 346 655 442 712 c 0,0,1
EndSplineSet
Validated: 1
EndChar

StartChar: equal
Encoding: 61 61 32
Width: 562
GlyphClass: 2
Flags: W
LayerCount: 2
Fore
SplineSet
77 237 m 1,0,1
 48 241 48 241 34 257.5 c 128,-1,2
 20 274 20 274 20 294 c 256,3,4
 20 314 20 314 35.5 330.5 c 128,-1,5
 51 347 51 347 82 347 c 2,6,-1
 492 347 l 1,7,8
 516 339 516 339 528 324 c 128,-1,9
 540 309 540 309 540 292 c 0,10,11
 540 274 540 274 526.5 258 c 128,-1,12
 513 242 513 242 487 237 c 1,13,-1
 77 237 l 1,14,-1
 77 237 l 1,0,1
77 490 m 1,15,16
 48 494 48 494 34 510.5 c 128,-1,17
 20 527 20 527 20 547 c 256,18,19
 20 567 20 567 35.5 583.5 c 128,-1,20
 51 600 51 600 82 600 c 2,21,-1
 492 600 l 1,22,23
 516 592 516 592 528 577 c 128,-1,24
 540 562 540 562 540 545 c 0,25,26
 540 527 540 527 526.5 511 c 128,-1,27
 513 495 513 495 487 490 c 1,28,-1
 77 490 l 1,29,-1
 77 490 l 1,15,16
EndSplineSet
Validated: 5
EndChar

StartChar: greater
Encoding: 62 62 33
Width: 562
GlyphClass: 2
Flags: W
LayerCount: 2
Fore
SplineSet
119 712 m 0,0,1
 215 655 215 655 309 598 c 128,-1,2
 403 541 403 541 499 483 c 1,3,4
 525 462 525 462 525 437 c 0,5,6
 525 415 525 415 503 391 c 1,7,8
 407 333 407 333 313 275.5 c 128,-1,9
 219 218 219 218 123 159 c 0,10,11
 114 154 114 154 105.5 152.5 c 128,-1,12
 97 151 97 151 89 151 c 0,13,14
 66 151 66 151 51 166 c 128,-1,15
 36 181 36 181 36 201 c 0,16,17
 36 215 36 215 43.5 228.5 c 128,-1,18
 51 242 51 242 67 253 c 2,19,-1
 366 436 l 1,20,-1
 55 623 l 1,21,22
 37 645 37 645 37 668 c 0,23,24
 37 689 37 689 51.5 703.5 c 128,-1,25
 66 718 66 718 89 718 c 0,26,27
 102 718 102 718 119 712 c 0,0,1
EndSplineSet
Validated: 1
EndChar

StartChar: question
Encoding: 63 63 34
Width: 562
GlyphClass: 2
Flags: W
LayerCount: 2
Fore
SplineSet
286 766 m 0,0,1
 242 766 242 766 221 741.5 c 128,-1,2
 200 717 200 717 196 663 c 1,3,4
 190 640 190 640 173.5 626.5 c 128,-1,5
 157 613 157 613 137 613 c 256,6,7
 117 613 117 613 100 627 c 128,-1,8
 83 641 83 641 78 664 c 1,9,10
 80 712 80 712 94.5 750.5 c 128,-1,11
 109 789 109 789 138 818 c 0,12,13
 164 847 164 847 202 861.5 c 128,-1,14
 240 876 240 876 286 876 c 0,15,16
 331 876 331 876 369.5 862.5 c 128,-1,17
 408 849 408 849 435.5 822.5 c 128,-1,18
 463 796 463 796 478.5 756.5 c 128,-1,19
 494 717 494 717 494 666 c 0,20,21
 494 630 494 630 488.5 604 c 128,-1,22
 483 578 483 578 470 555 c 128,-1,23
 457 532 457 532 435 508.5 c 128,-1,24
 413 485 413 485 380 454 c 0,25,26
 368 446 368 446 361 440.5 c 128,-1,27
 354 435 354 435 350 425 c 128,-1,28
 346 415 346 415 344.5 398 c 128,-1,29
 343 381 343 381 343 351 c 2,30,-1
 343 305 l 1,31,32
 338 284 338 284 321.5 271 c 128,-1,33
 305 258 305 258 287 258 c 0,34,35
 268 258 268 258 251 270.5 c 128,-1,36
 234 283 234 283 229 305 c 1,37,-1
 229 351 l 2,38,39
 229 393 229 393 231 419 c 128,-1,40
 233 445 233 445 241.5 464.5 c 128,-1,41
 250 484 250 484 266.5 501 c 128,-1,42
 283 518 283 518 312 542 c 0,43,44
 330 560 330 560 343 573 c 128,-1,45
 356 586 356 586 363.5 599.5 c 128,-1,46
 371 613 371 613 374.5 628.5 c 128,-1,47
 378 644 378 644 378 666 c 0,48,49
 378 714 378 714 356 740 c 128,-1,50
 334 766 334 766 286 766 c 0,0,1
211 74 m 256,51,52
 211 106 211 106 233 128 c 128,-1,53
 255 150 255 150 287 150 c 256,54,55
 319 150 319 150 341 128 c 128,-1,56
 363 106 363 106 363 74 c 256,57,58
 363 42 363 42 341 20 c 128,-1,59
 319 -2 319 -2 287 -2 c 256,60,61
 255 -2 255 -2 233 20 c 128,-1,62
 211 42 211 42 211 74 c 256,51,52
EndSplineSet
Validated: 1
EndChar

StartChar: at
Encoding: 64 64 35
Width: 562
GlyphClass: 2
Flags: W
LayerCount: 2
Fore
SplineSet
536 202 m 1,0,-1
 536 203 l 1,1,2
 536 181 536 181 519.5 169 c 128,-1,3
 503 157 503 157 483 157 c 0,4,5
 456 157 456 157 442.5 180 c 128,-1,6
 429 203 429 203 420 253 c 1,7,8
 368 213 368 213 336 213 c 0,9,10
 263 213 263 213 224.5 261 c 128,-1,11
 186 309 186 309 186 419 c 0,12,13
 186 465 186 465 197 503 c 128,-1,14
 208 541 208 541 227.5 568.5 c 128,-1,15
 247 596 247 596 274.5 611 c 128,-1,16
 302 626 302 626 336 626 c 0,17,18
 341 626 341 626 354.5 623.5 c 128,-1,19
 368 621 368 621 385 618 c 1,20,21
 373 690 373 690 345 723 c 128,-1,22
 317 756 317 756 270 756 c 0,23,24
 237 756 237 756 214.5 737.5 c 128,-1,25
 192 719 192 719 178 679 c 128,-1,26
 164 639 164 639 157.5 576.5 c 128,-1,27
 151 514 151 514 151 427 c 0,28,29
 151 346 151 346 157.5 289.5 c 128,-1,30
 164 233 164 233 177.5 197 c 128,-1,31
 191 161 191 161 211.5 144.5 c 128,-1,32
 232 128 232 128 259 128 c 0,33,34
 273 128 273 128 289.5 138 c 128,-1,35
 306 148 306 148 321 148 c 0,36,37
 343 148 343 148 361.5 131.5 c 128,-1,38
 380 115 380 115 380 92 c 0,39,40
 380 75 380 75 368 61 c 128,-1,41
 356 47 356 47 337 37.5 c 128,-1,42
 318 28 318 28 295 23 c 128,-1,43
 272 18 272 18 251 18 c 0,44,45
 196 18 196 18 157 42 c 128,-1,46
 118 66 118 66 93.5 117 c 128,-1,47
 69 168 69 168 57.5 248 c 128,-1,48
 46 328 46 328 46 440 c 0,49,50
 46 554 46 554 59.5 634 c 128,-1,51
 73 714 73 714 100.5 764.5 c 128,-1,52
 128 815 128 815 171 838 c 128,-1,53
 214 861 214 861 273 861 c 0,54,55
 336 861 336 861 379.5 838.5 c 128,-1,56
 423 816 423 816 450 770.5 c 128,-1,57
 477 725 477 725 489 656 c 128,-1,58
 501 587 501 587 501 493 c 2,59,-1
 501 401 l 2,60,61
 501 385 501 385 502 368 c 128,-1,62
 503 351 503 351 507 329.5 c 128,-1,63
 511 308 511 308 517.5 281 c 128,-1,64
 524 254 524 254 535 218 c 1,65,-1
 536 202 l 1,0,-1
348 519 m 0,66,67
 324 519 324 519 308 492.5 c 128,-1,68
 292 466 292 466 292 419 c 0,69,70
 292 365 292 365 301 342.5 c 128,-1,71
 310 320 310 320 331 320 c 0,72,73
 370 320 370 320 382.5 357 c 128,-1,74
 395 394 395 394 397 477 c 1,75,76
 386 501 386 501 375.5 508.5 c 128,-1,77
 365 516 365 516 348 519 c 0,66,67
EndSplineSet
Validated: 5
EndChar

StartChar: A
Encoding: 65 65 36
Width: 562
GlyphClass: 2
Flags: W
LayerCount: 2
Fore
SplineSet
229 840 m 1,0,1
 240 858 240 858 253.5 866.5 c 128,-1,2
 267 875 267 875 281 875 c 0,3,4
 298 875 298 875 312 863 c 128,-1,5
 326 851 326 851 333 827 c 0,6,7
 344 787 344 787 355 746.5 c 128,-1,8
 366 706 366 706 379 658.5 c 128,-1,9
 392 611 392 611 407.5 554 c 128,-1,10
 423 497 423 497 442.5 425 c 128,-1,11
 462 353 462 353 486 263.5 c 128,-1,12
 510 174 510 174 540 62 c 1,13,14
 538 32 538 32 522.5 16 c 128,-1,15
 507 0 507 0 487 0 c 0,16,17
 472 0 472 0 457 9.5 c 128,-1,18
 442 19 442 19 432 39 c 1,19,20
 418 90 418 90 404.5 141.5 c 128,-1,21
 391 193 391 193 377 245 c 1,22,-1
 182 245 l 1,23,-1
 129 44 l 2,24,25
 120 21 120 21 105 10.5 c 128,-1,26
 90 0 90 0 74 0 c 0,27,28
 54 0 54 0 38 15 c 128,-1,29
 22 30 22 30 22 57 c 0,30,31
 22 62 22 62 22.5 66 c 128,-1,32
 23 70 23 70 24 75 c 2,33,-1
 229 840 l 1,0,1
280 608 m 1,34,35
 263 544 263 544 246 481 c 128,-1,36
 229 418 229 418 212 355 c 1,37,-1
 348 355 l 1,38,39
 331 418 331 418 314 481 c 128,-1,40
 297 544 297 544 280 608 c 1,34,35
EndSplineSet
Validated: 1
EndChar

StartChar: B
Encoding: 66 66 37
Width: 562
GlyphClass: 2
Flags: W
LayerCount: 2
Fore
SplineSet
88 -2 m 1,0,1
 57 2 57 2 43 16 c 128,-1,2
 29 30 29 30 25 61 c 1,3,-1
 25 820 l 1,4,5
 32 849 32 849 47.5 863 c 128,-1,6
 63 877 63 877 93 877 c 2,7,-1
 229 877 l 2,8,9
 258 877 258 877 285.5 875 c 128,-1,10
 313 873 313 873 338 866 c 128,-1,11
 363 859 363 859 386 845.5 c 128,-1,12
 409 832 409 832 429 810 c 0,13,14
 459 776 459 776 475 734 c 128,-1,15
 491 692 491 692 491 650 c 256,16,17
 491 608 491 608 475 567 c 128,-1,18
 459 526 459 526 428 489 c 1,19,20
 481 444 481 444 507.5 385.5 c 128,-1,21
 534 327 534 327 534 266 c 0,22,23
 534 215 534 215 515 167 c 128,-1,24
 496 119 496 119 462.5 81.5 c 128,-1,25
 429 44 429 44 382.5 21 c 128,-1,26
 336 -2 336 -2 282 -2 c 2,27,-1
 88 -2 l 1,0,1
139 426 m 1,28,-1
 139 111 l 1,29,-1
 272 111 l 2,30,31
 303 111 303 111 329.5 123 c 128,-1,32
 356 135 356 135 376 155.5 c 128,-1,33
 396 176 396 176 407.5 204 c 128,-1,34
 419 232 419 232 419 264 c 0,35,36
 419 295 419 295 411 323 c 128,-1,37
 403 351 403 351 386 372.5 c 128,-1,38
 369 394 369 394 343 408 c 128,-1,39
 317 422 317 422 281 426 c 1,40,-1
 139 426 l 1,28,-1
139 539 m 1,41,-1
 277 539 l 1,42,43
 322 545 322 545 350.5 574 c 128,-1,44
 379 603 379 603 379 648 c 256,45,46
 379 693 379 693 350.5 726 c 128,-1,47
 322 759 322 759 274 763 c 1,48,-1
 139 763 l 1,49,-1
 139 539 l 1,41,-1
EndSplineSet
Validated: 1
EndChar

StartChar: C
Encoding: 67 67 38
Width: 562
GlyphClass: 2
Flags: W
LayerCount: 2
Fore
SplineSet
327 890 m 2,0,1
 371 887 371 887 409 865 c 128,-1,2
 447 843 447 843 474.5 814.5 c 128,-1,3
 502 786 502 786 517.5 756 c 128,-1,4
 533 726 533 726 533 705 c 0,5,6
 533 677 533 677 512 661.5 c 128,-1,7
 491 646 491 646 467 646 c 0,8,9
 449 646 449 646 432.5 658 c 128,-1,10
 416 670 416 670 408 691 c 0,11,12
 405 701 405 701 396 714.5 c 128,-1,13
 387 728 387 728 374 740.5 c 128,-1,14
 361 753 361 753 344 761.5 c 128,-1,15
 327 770 327 770 309 770 c 2,16,-1
 253 770 l 2,17,18
 230 770 230 770 209.5 758 c 128,-1,19
 189 746 189 746 173.5 725 c 128,-1,20
 158 704 158 704 149 676 c 128,-1,21
 140 648 140 648 140 616 c 2,22,-1
 140 260 l 2,23,24
 140 228 140 228 149 200 c 128,-1,25
 158 172 158 172 173.5 151 c 128,-1,26
 189 130 189 130 209.5 117.5 c 128,-1,27
 230 105 230 105 253 105 c 2,28,-1
 309 105 l 2,29,30
 327 105 327 105 344 113.5 c 128,-1,31
 361 122 361 122 375 135 c 128,-1,32
 389 148 389 148 398.5 163.5 c 128,-1,33
 408 179 408 179 412 193 c 0,34,35
 418 217 418 217 433 227 c 128,-1,36
 448 237 448 237 467 237 c 0,37,38
 495 237 495 237 514.5 218 c 128,-1,39
 534 199 534 199 534 168 c 0,40,41
 534 165 534 165 531.5 153.5 c 128,-1,42
 529 142 529 142 521.5 126 c 128,-1,43
 514 110 514 110 501.5 90 c 128,-1,44
 489 70 489 70 470 50 c 0,45,46
 443 18 443 18 404.5 2 c 128,-1,47
 366 -14 366 -14 321 -14 c 2,48,-1
 242 -14 l 2,49,50
 198 -14 198 -14 158.5 4 c 128,-1,51
 119 22 119 22 89.5 52.5 c 128,-1,52
 60 83 60 83 42.5 124 c 128,-1,53
 25 165 25 165 25 211 c 2,54,-1
 25 664 l 2,55,56
 25 710 25 710 42.5 751.5 c 128,-1,57
 60 793 60 793 89.5 823.5 c 128,-1,58
 119 854 119 854 158.5 872 c 128,-1,59
 198 890 198 890 242 890 c 2,60,-1
 327 890 l 2,0,1
EndSplineSet
Validated: 1
EndChar

StartChar: D
Encoding: 68 68 39
Width: 562
GlyphClass: 2
Flags: W
LayerCount: 2
Fore
SplineSet
86 -2 m 1,0,-1
 88 -2 l 1,1,2
 57 2 57 2 43 16 c 128,-1,3
 29 30 29 30 25 61 c 1,4,-1
 25 820 l 1,5,6
 32 849 32 849 47 862 c 128,-1,7
 62 875 62 875 93 877 c 2,8,-1
 284 877 l 1,9,10
 335 872 335 872 380.5 856.5 c 128,-1,11
 426 841 426 841 462 803 c 0,12,13
 497 765 497 765 515.5 715.5 c 128,-1,14
 534 666 534 666 534 615 c 2,15,-1
 534 279 l 2,16,17
 534 237 534 237 523 196 c 128,-1,18
 512 155 512 155 490.5 119 c 128,-1,19
 469 83 469 83 437.5 55.5 c 128,-1,20
 406 28 406 28 365 13 c 0,21,22
 348 7 348 7 325.5 3.5 c 128,-1,23
 303 0 303 0 283 -2 c 2,24,-1
 86 -2 l 1,0,-1
267 110 m 1,25,26
 339 118 339 118 379.5 156.5 c 128,-1,27
 420 195 420 195 420 273 c 2,28,-1
 420 609 l 2,29,30
 420 640 420 640 411 669.5 c 128,-1,31
 402 699 402 699 380 722 c 0,32,33
 342 763 342 763 283 763 c 2,34,-1
 139 763 l 1,35,-1
 139 111 l 1,36,-1
 267 110 l 1,25,26
EndSplineSet
Validated: 5
EndChar

StartChar: E
Encoding: 69 69 40
Width: 562
GlyphClass: 2
Flags: W
LayerCount: 2
Fore
SplineSet
486 111 m 1,0,1
 512 103 512 103 524 87.5 c 128,-1,2
 536 72 536 72 536 54 c 0,3,4
 536 37 536 37 520.5 20.5 c 128,-1,5
 505 4 505 4 478 -2 c 1,6,-1
 88 -2 l 1,7,8
 57 2 57 2 43 16 c 128,-1,9
 29 30 29 30 25 61 c 1,10,-1
 25 820 l 1,11,12
 32 848 32 848 46.5 862 c 128,-1,13
 61 876 61 876 92 876 c 2,14,-1
 486 876 l 1,15,16
 512 868 512 868 524 852.5 c 128,-1,17
 536 837 536 837 536 819 c 0,18,19
 536 802 536 802 520.5 785.5 c 128,-1,20
 505 769 505 769 478 763 c 1,21,-1
 139 763 l 1,22,-1
 139 510 l 1,23,-1
 404 510 l 1,24,25
 430 502 430 502 442 486.5 c 128,-1,26
 454 471 454 471 454 453 c 0,27,28
 454 436 454 436 438.5 419.5 c 128,-1,29
 423 403 423 403 395 396 c 1,30,-1
 139 396 l 1,31,-1
 139 111 l 1,32,-1
 486 111 l 1,0,1
EndSplineSet
Validated: 1
EndChar

StartChar: F
Encoding: 70 70 41
Width: 562
GlyphClass: 2
Flags: W
LayerCount: 2
Fore
SplineSet
139 65 m 2,0,1
 137 32 137 32 119.5 15 c 128,-1,2
 102 -2 102 -2 82 -2 c 256,3,4
 62 -2 62 -2 45.5 13.5 c 128,-1,5
 29 29 29 29 25 61 c 1,6,-1
 25 820 l 1,7,8
 32 848 32 848 46.5 862 c 128,-1,9
 61 876 61 876 92 876 c 2,10,-1
 486 876 l 1,11,12
 512 868 512 868 524 852.5 c 128,-1,13
 536 837 536 837 536 819 c 0,14,15
 536 802 536 802 520.5 785.5 c 128,-1,16
 505 769 505 769 478 763 c 1,17,-1
 139 763 l 1,18,-1
 139 510 l 1,19,-1
 404 510 l 1,20,21
 430 502 430 502 442 486.5 c 128,-1,22
 454 471 454 471 454 453 c 0,23,24
 454 436 454 436 438.5 419.5 c 128,-1,25
 423 403 423 403 395 396 c 1,26,-1
 139 396 l 1,27,-1
 139 65 l 2,0,1
EndSplineSet
Validated: 1
EndChar

StartChar: G
Encoding: 71 71 42
Width: 562
GlyphClass: 2
Flags: W
LayerCount: 2
Fore
SplineSet
339 385 m 1,0,1
 310 389 310 389 294.5 405.5 c 128,-1,2
 279 422 279 422 279 442 c 0,3,4
 279 463 279 463 296 480.5 c 128,-1,5
 313 498 313 498 346 498 c 2,6,-1
 488 498 l 1,7,8
 508 493 508 493 519 482.5 c 128,-1,9
 530 472 530 472 535 452 c 1,10,-1
 535 207 l 2,11,12
 535 184 535 184 531.5 164.5 c 128,-1,13
 528 145 528 145 520 127 c 128,-1,14
 512 109 512 109 499 90.5 c 128,-1,15
 486 72 486 72 467 50 c 0,16,17
 439 18 439 18 400.5 2 c 128,-1,18
 362 -14 362 -14 316 -14 c 2,19,-1
 242 -14 l 2,20,21
 198 -14 198 -14 158.5 4 c 128,-1,22
 119 22 119 22 89.5 52.5 c 128,-1,23
 60 83 60 83 42.5 124 c 128,-1,24
 25 165 25 165 25 211 c 2,25,-1
 25 664 l 2,26,27
 25 710 25 710 42.5 751.5 c 128,-1,28
 60 793 60 793 89.5 823.5 c 128,-1,29
 119 854 119 854 158.5 872 c 128,-1,30
 198 890 198 890 242 890 c 2,31,-1
 323 890 l 2,32,33
 365 890 365 890 402.5 869.5 c 128,-1,34
 440 849 440 849 468 820 c 128,-1,35
 496 791 496 791 512.5 759 c 128,-1,36
 529 727 529 727 529 705 c 0,37,38
 529 677 529 677 508 661.5 c 128,-1,39
 487 646 487 646 463 646 c 0,40,41
 445 646 445 646 428.5 658 c 128,-1,42
 412 670 412 670 404 691 c 0,43,44
 401 701 401 701 392 714.5 c 128,-1,45
 383 728 383 728 369.5 740.5 c 128,-1,46
 356 753 356 753 339.5 761.5 c 128,-1,47
 323 770 323 770 305 770 c 2,48,-1
 253 770 l 2,49,50
 230 770 230 770 209.5 758 c 128,-1,51
 189 746 189 746 173.5 725 c 128,-1,52
 158 704 158 704 149 676 c 128,-1,53
 140 648 140 648 140 616 c 2,54,-1
 140 260 l 2,55,56
 140 228 140 228 149 200 c 128,-1,57
 158 172 158 172 173.5 151 c 128,-1,58
 189 130 189 130 209.5 117.5 c 128,-1,59
 230 105 230 105 253 105 c 2,60,-1
 305 105 l 1,61,62
 333 109 333 109 354.5 124.5 c 128,-1,63
 376 140 376 140 390.5 161.5 c 128,-1,64
 405 183 405 183 412.5 208.5 c 128,-1,65
 420 234 420 234 421 260 c 2,66,-1
 421 385 l 1,67,-1
 339 385 l 1,0,1
EndSplineSet
Validated: 1
EndChar

StartChar: H
Encoding: 72 72 43
Width: 562
GlyphClass: 2
Flags: W
LayerCount: 2
Fore
SplineSet
420 820 m 1,0,1
 427 847 427 847 443.5 862.5 c 128,-1,2
 460 878 460 878 477 878 c 256,3,4
 494 878 494 878 509.5 865 c 128,-1,5
 525 852 525 852 534 828 c 1,6,-1
 534 66 l 2,7,8
 534 32 534 32 516 15 c 128,-1,9
 498 -2 498 -2 478 -2 c 256,10,11
 458 -2 458 -2 441.5 13.5 c 128,-1,12
 425 29 425 29 420 60 c 1,13,-1
 420 398 l 1,14,-1
 139 398 l 1,15,-1
 139 66 l 2,16,17
 139 32 139 32 120.5 15 c 128,-1,18
 102 -2 102 -2 82 -2 c 256,19,20
 62 -2 62 -2 45.5 13.5 c 128,-1,21
 29 29 29 29 25 60 c 1,22,-1
 25 820 l 1,23,24
 32 847 32 847 48 862.5 c 128,-1,25
 64 878 64 878 81 878 c 256,26,27
 98 878 98 878 114 865 c 128,-1,28
 130 852 130 852 139 828 c 1,29,-1
 139 512 l 1,30,-1
 420 512 l 1,31,-1
 420 820 l 1,0,1
EndSplineSet
Validated: 1
EndChar

StartChar: I
Encoding: 73 73 44
Width: 562
GlyphClass: 2
Flags: W
LayerCount: 2
Fore
SplineSet
182 763 m 1,0,1
 153 767 153 767 137.5 783.5 c 128,-1,2
 122 800 122 800 122 820 c 0,3,4
 122 841 122 841 139 858.5 c 128,-1,5
 156 876 156 876 188 876 c 2,6,-1
 391 876 l 1,7,8
 417 868 417 868 429 852.5 c 128,-1,9
 441 837 441 837 441 819 c 0,10,11
 441 802 441 802 425.5 785.5 c 128,-1,12
 410 769 410 769 383 763 c 1,13,-1
 337 763 l 1,14,-1
 337 111 l 1,15,-1
 391 111 l 1,16,17
 417 103 417 103 429 87.5 c 128,-1,18
 441 72 441 72 441 54 c 0,19,20
 441 37 441 37 425.5 20.5 c 128,-1,21
 410 4 410 4 383 -2 c 1,22,-1
 182 -2 l 1,23,24
 153 2 153 2 137.5 19.5 c 128,-1,25
 122 37 122 37 122 57 c 256,26,27
 122 77 122 77 139 94 c 128,-1,28
 156 111 156 111 188 111 c 2,29,-1
 224 111 l 1,30,-1
 224 763 l 1,31,-1
 182 763 l 1,0,1
EndSplineSet
Validated: 1
EndChar

StartChar: J
Encoding: 74 74 45
Width: 562
GlyphClass: 2
Flags: W
LayerCount: 2
Fore
SplineSet
36 112 m 2,0,1
 31 123 31 123 29.5 129 c 128,-1,2
 28 135 28 135 28 144 c 0,3,4
 28 168 28 168 43.5 183 c 128,-1,5
 59 198 59 198 80 198 c 0,6,7
 94 198 94 198 108 190.5 c 128,-1,8
 122 183 122 183 134 165 c 0,9,10
 156 132 156 132 194.5 114.5 c 128,-1,11
 233 97 233 97 274 97 c 0,12,13
 304 97 304 97 331 107 c 128,-1,14
 358 117 358 117 377.5 136.5 c 128,-1,15
 397 156 397 156 408.5 184.5 c 128,-1,16
 420 213 420 213 420 251 c 2,17,-1
 420 820 l 1,18,19
 427 847 427 847 443.5 862.5 c 128,-1,20
 460 878 460 878 477 878 c 256,21,22
 494 878 494 878 509.5 865 c 128,-1,23
 525 852 525 852 534 828 c 1,24,-1
 534 257 l 2,25,26
 534 190 534 190 512 139.5 c 128,-1,27
 490 89 490 89 453 55 c 128,-1,28
 416 21 416 21 368.5 3.5 c 128,-1,29
 321 -14 321 -14 269 -14 c 0,30,31
 203 -14 203 -14 141 15.5 c 128,-1,32
 79 45 79 45 38 108 c 1,33,-1
 36 112 l 2,0,1
EndSplineSet
Validated: 1
EndChar

StartChar: K
Encoding: 75 75 46
Width: 562
GlyphClass: 2
Flags: W
LayerCount: 2
Fore
SplineSet
518 97 m 2,0,1
 535 72 535 72 535 51 c 0,2,3
 535 29 535 29 519.5 14 c 128,-1,4
 504 -1 504 -1 483 -1 c 0,5,6
 459 -1 459 -1 433 22 c 1,7,-1
 183 358 l 1,8,-1
 141 303 l 1,9,-1
 141 66 l 2,10,11
 141 32 141 32 122.5 15 c 128,-1,12
 104 -2 104 -2 84 -2 c 256,13,14
 64 -2 64 -2 47.5 13.5 c 128,-1,15
 31 29 31 29 27 60 c 1,16,-1
 27 820 l 1,17,18
 34 847 34 847 50 862.5 c 128,-1,19
 66 878 66 878 83 878 c 256,20,21
 100 878 100 878 116 865 c 128,-1,22
 132 852 132 852 141 828 c 1,23,-1
 141 485 l 1,24,25
 174 525 174 525 212 573 c 128,-1,26
 250 621 250 621 289 670 c 128,-1,27
 328 719 328 719 366 767 c 128,-1,28
 404 815 404 815 437 856 c 1,29,30
 461 874 461 874 484 874 c 0,31,32
 505 874 505 874 519.5 859 c 128,-1,33
 534 844 534 844 534 820 c 0,34,35
 534 808 534 808 529 790 c 1,36,-1
 257 448 l 1,37,-1
 518 97 l 2,0,1
EndSplineSet
Validated: 1
EndChar

StartChar: L
Encoding: 76 76 47
Width: 562
GlyphClass: 2
Flags: W
LayerCount: 2
Fore
SplineSet
20 820 m 1,0,1
 27 847 27 847 43 862.5 c 128,-1,2
 59 878 59 878 76 878 c 256,3,4
 93 878 93 878 109 865 c 128,-1,5
 125 852 125 852 134 828 c 1,6,-1
 134 111 l 1,7,-1
 489 111 l 1,8,9
 515 103 515 103 527 87.5 c 128,-1,10
 539 72 539 72 539 54 c 0,11,12
 539 37 539 37 523.5 20.5 c 128,-1,13
 508 4 508 4 481 -2 c 1,14,-1
 83 -2 l 1,15,16
 52 2 52 2 38 16 c 128,-1,17
 24 30 24 30 20 60 c 1,18,-1
 20 820 l 1,0,1
EndSplineSet
Validated: 1
EndChar

StartChar: M
Encoding: 77 77 48
Width: 562
GlyphClass: 2
Flags: W
LayerCount: 2
Fore
SplineSet
130 62 m 1,0,1
 128 31 128 31 111.5 15.5 c 128,-1,2
 95 0 95 0 75 0 c 0,3,4
 56 0 56 0 40 14 c 128,-1,5
 24 28 24 28 20 57 c 1,6,-1
 20 822 l 1,7,8
 25 848 25 848 40 861.5 c 128,-1,9
 55 875 55 875 73 875 c 0,10,11
 102 875 102 875 124 844 c 1,12,-1
 280 558 l 1,13,14
 318 629 318 629 357 699 c 128,-1,15
 396 769 396 769 435 840 c 0,16,17
 445 858 445 858 458.5 866.5 c 128,-1,18
 472 875 472 875 486 875 c 0,19,20
 503 875 503 875 517.5 863 c 128,-1,21
 532 851 532 851 540 827 c 1,22,-1
 540 62 l 2,23,24
 538 31 538 31 521.5 15.5 c 128,-1,25
 505 0 505 0 485 0 c 0,26,27
 466 0 466 0 450 14 c 128,-1,28
 434 28 434 28 430 57 c 1,29,-1
 430 604 l 1,30,31
 404 556 404 556 378.5 509.5 c 128,-1,32
 353 463 353 463 327 415 c 1,33,34
 306 389 306 389 281 389 c 0,35,36
 259 389 259 389 235 411 c 1,37,38
 209 460 209 460 182.5 508.5 c 128,-1,39
 156 557 156 557 130 605 c 1,40,-1
 130 62 l 1,41,-1
 130 62 l 1,0,1
EndSplineSet
Validated: 5
EndChar

StartChar: N
Encoding: 78 78 49
Width: 562
GlyphClass: 2
Flags: W
LayerCount: 2
Fore
SplineSet
130 62 m 1,0,1
 128 31 128 31 111.5 15.5 c 128,-1,2
 95 0 95 0 75 0 c 0,3,4
 56 0 56 0 40 14 c 128,-1,5
 24 28 24 28 20 57 c 1,6,-1
 20 822 l 1,7,8
 25 848 25 848 40 861.5 c 128,-1,9
 55 875 55 875 73 875 c 0,10,11
 102 875 102 875 124 844 c 1,12,-1
 430 274 l 1,13,-1
 430 822 l 1,14,15
 435 848 435 848 451 861.5 c 128,-1,16
 467 875 467 875 485 875 c 0,17,18
 502 875 502 875 517 863 c 128,-1,19
 532 851 532 851 540 827 c 1,20,-1
 540 62 l 2,21,22
 538 33 538 33 523 16.5 c 128,-1,23
 508 0 508 0 488 0 c 0,24,25
 463 0 463 0 440 23 c 1,26,-1
 130 603 l 1,27,-1
 130 62 l 1,28,-1
 130 62 l 1,0,1
EndSplineSet
Validated: 5
EndChar

StartChar: O
Encoding: 79 79 50
Width: 562
GlyphClass: 2
Flags: W
LayerCount: 2
Fore
SplineSet
420 663 m 2,0,1
 420 692 420 692 409 717 c 0,2,3
 398 743 398 743 375.5 760 c 128,-1,4
 353 777 353 777 324 778 c 0,5,6
 299 778 299 778 284.5 778.5 c 128,-1,7
 270 779 270 779 262 779 c 128,-1,8
 254 779 254 779 251 779 c 128,-1,9
 248 779 248 779 246 779 c 0,10,11
 240 779 240 779 234 778.5 c 128,-1,12
 228 778 228 778 223 777 c 0,13,14
 203 774 203 774 187.5 761.5 c 128,-1,15
 172 749 172 749 161.5 731.5 c 128,-1,16
 151 714 151 714 145 694.5 c 128,-1,17
 139 675 139 675 139 657 c 2,18,-1
 139 248 l 2,19,20
 139 225 139 225 140.5 201.5 c 128,-1,21
 142 178 142 178 152 157 c 0,22,23
 171 116 171 116 202.5 105.5 c 128,-1,24
 234 95 234 95 271 95 c 2,25,-1
 319 95 l 2,26,27
 336 97 336 97 351.5 101 c 128,-1,28
 367 105 367 105 381 116 c 0,29,30
 407 136 407 136 412.5 162.5 c 128,-1,31
 418 189 418 189 420 218 c 2,32,-1
 420 663 l 2,0,1
533 202 m 2,33,34
 530 151 530 151 512 105 c 128,-1,35
 494 59 494 59 453 27 c 0,36,37
 426 5 426 5 392.5 -5.5 c 128,-1,38
 359 -16 359 -16 324 -17 c 2,39,-1
 289 -17 l 2,40,41
 256 -17 256 -17 224.5 -13.5 c 128,-1,42
 193 -10 193 -10 165 -0.5 c 128,-1,43
 137 9 137 9 112 27 c 128,-1,44
 87 45 87 45 67 75 c 0,45,46
 42 112 42 112 33.5 157 c 128,-1,47
 25 202 25 202 25 248 c 2,48,-1
 25 663 l 2,49,50
 25 701 25 701 38 738 c 128,-1,51
 51 775 51 775 74.5 806 c 128,-1,52
 98 837 98 837 130.5 859 c 128,-1,53
 163 881 163 881 201 888 c 0,54,55
 215 892 215 892 230.5 892.5 c 128,-1,56
 246 893 246 893 261 893 c 2,57,-1
 329 893 l 2,58,59
 368 891 368 891 407.5 871.5 c 128,-1,60
 447 852 447 852 476 823 c 1,61,62
 502 791 502 791 518 750.5 c 128,-1,63
 534 710 534 710 534 669 c 2,64,-1
 534 225 l 1,65,-1
 533 202 l 2,33,34
EndSplineSet
Validated: 1
EndChar

StartChar: P
Encoding: 80 80 51
Width: 562
GlyphClass: 2
Flags: W
LayerCount: 2
Fore
SplineSet
139 66 m 2,0,1
 137 32 137 32 119.5 15 c 128,-1,2
 102 -2 102 -2 82 -2 c 256,3,4
 62 -2 62 -2 45.5 13.5 c 128,-1,5
 29 29 29 29 25 61 c 1,6,-1
 25 820 l 1,7,8
 32 848 32 848 46.5 862 c 128,-1,9
 61 876 61 876 92 876 c 2,10,-1
 319 876 l 2,11,12
 343 876 343 876 364.5 868.5 c 128,-1,13
 386 861 386 861 405 850 c 0,14,15
 469 813 469 813 501.5 751.5 c 128,-1,16
 534 690 534 690 534 623 c 0,17,18
 534 557 534 557 500.5 496.5 c 128,-1,19
 467 436 467 436 399 403 c 0,20,21
 380 393 380 393 358.5 386.5 c 128,-1,22
 337 380 337 380 313 378 c 2,23,-1
 139 378 l 1,24,-1
 139 66 l 2,0,1
139 493 m 1,25,-1
 299 493 l 2,26,27
 312 494 312 494 326 496 c 128,-1,28
 340 498 340 498 351 506 c 0,29,30
 387 527 387 527 403.5 558 c 128,-1,31
 420 589 420 589 420 623 c 0,32,33
 420 659 420 659 402 693 c 128,-1,34
 384 727 384 727 349 750 c 0,35,36
 328 763 328 763 304 763 c 2,37,-1
 139 763 l 1,38,-1
 139 493 l 1,25,-1
EndSplineSet
Validated: 1
EndChar

StartChar: Q
Encoding: 81 81 52
Width: 562
GlyphClass: 2
Flags: W
LayerCount: 2
Fore
SplineSet
533 202 m 2,0,1
 531 170 531 170 523.5 140.5 c 128,-1,2
 516 111 516 111 502 85 c 1,3,-1
 508 79 l 1,4,5
 523 56 523 56 523 35 c 0,6,7
 523 12 523 12 508.5 -2.5 c 128,-1,8
 494 -17 494 -17 471 -17 c 0,9,10
 460 -17 460 -17 446.5 -11 c 128,-1,11
 433 -5 433 -5 420 6 c 1,12,13
 374 -15 374 -15 324 -17 c 2,14,-1
 289 -17 l 2,15,16
 256 -17 256 -17 224.5 -13.5 c 128,-1,17
 193 -10 193 -10 165 -0.5 c 128,-1,18
 137 9 137 9 112 27 c 128,-1,19
 87 45 87 45 67 75 c 0,20,21
 42 112 42 112 33.5 157 c 128,-1,22
 25 202 25 202 25 248 c 2,23,-1
 25 663 l 2,24,25
 25 701 25 701 38 738 c 128,-1,26
 51 775 51 775 74.5 806 c 128,-1,27
 98 837 98 837 130.5 859 c 128,-1,28
 163 881 163 881 201 888 c 0,29,30
 215 892 215 892 230.5 892.5 c 128,-1,31
 246 893 246 893 261 893 c 2,32,-1
 329 893 l 2,33,34
 368 891 368 891 407.5 871.5 c 128,-1,35
 447 852 447 852 476 823 c 1,36,37
 502 791 502 791 518 750.5 c 128,-1,38
 534 710 534 710 534 669 c 2,39,-1
 533 202 l 2,0,1
295 136 m 1,40,41
 284 156 284 156 284 174 c 0,42,43
 284 197 284 197 298.5 211.5 c 128,-1,44
 313 226 313 226 334 226 c 0,45,46
 359 226 359 226 379 210 c 0,47,48
 387 201 387 201 396.5 192 c 128,-1,49
 406 183 406 183 415 174 c 1,50,51
 417 185 417 185 418 196 c 128,-1,52
 419 207 419 207 420 218 c 2,53,-1
 420 663 l 2,54,55
 420 691 420 691 409 718 c 1,56,-1
 409 717 l 1,57,58
 398 743 398 743 375.5 760 c 128,-1,59
 353 777 353 777 324 778 c 0,60,61
 299 778 299 778 284.5 778.5 c 128,-1,62
 270 779 270 779 262 779 c 128,-1,63
 254 779 254 779 251 779 c 128,-1,64
 248 779 248 779 246 779 c 0,65,66
 240 779 240 779 234 778.5 c 128,-1,67
 228 778 228 778 223 777 c 0,68,69
 203 774 203 774 187.5 761.5 c 128,-1,70
 172 749 172 749 161.5 731.5 c 128,-1,71
 151 714 151 714 145 694.5 c 128,-1,72
 139 675 139 675 139 657 c 2,73,-1
 139 248 l 2,74,75
 139 225 139 225 140.5 201.5 c 128,-1,76
 142 178 142 178 152 157 c 0,77,78
 171 116 171 116 202.5 105.5 c 128,-1,79
 234 95 234 95 271 95 c 2,80,-1
 319 95 l 2,81,82
 329 95 329 95 333 96 c 1,83,-1
 295 136 l 1,40,41
EndSplineSet
Validated: 1
EndChar

StartChar: R
Encoding: 82 82 53
Width: 562
GlyphClass: 2
Flags: W
LayerCount: 2
Fore
SplineSet
530 78 m 2,0,1
 531 72 531 72 532 66 c 128,-1,2
 533 60 533 60 533 55 c 0,3,4
 533 29 533 29 518 13.5 c 128,-1,5
 503 -2 503 -2 482 -2 c 0,6,7
 470 -2 470 -2 457.5 3 c 128,-1,8
 445 8 445 8 432 20 c 1,9,10
 376 105 376 105 314 197.5 c 128,-1,11
 252 290 252 290 195 378 c 1,12,-1
 139 378 l 1,13,-1
 139 65 l 2,14,15
 137 31 137 31 119.5 14.5 c 128,-1,16
 102 -2 102 -2 82 -2 c 256,17,18
 62 -2 62 -2 45.5 13.5 c 128,-1,19
 29 29 29 29 25 61 c 1,20,-1
 25 820 l 1,21,22
 32 848 32 848 46.5 862 c 128,-1,23
 61 876 61 876 92 876 c 2,24,-1
 319 876 l 2,25,26
 343 876 343 876 364.5 868.5 c 128,-1,27
 386 861 386 861 405 850 c 0,28,29
 469 813 469 813 501.5 751.5 c 128,-1,30
 534 690 534 690 534 623 c 0,31,32
 534 584 534 584 521 544 c 128,-1,33
 508 504 508 504 482.5 470.5 c 128,-1,34
 457 437 457 437 419 412.5 c 128,-1,35
 381 388 381 388 330 380 c 1,36,-1
 530 78 l 2,0,1
139 493 m 1,37,-1
 299 493 l 2,38,39
 331 495 331 495 354 508 c 128,-1,40
 377 521 377 521 391.5 539.5 c 128,-1,41
 406 558 406 558 413 580.5 c 128,-1,42
 420 603 420 603 420 623 c 256,43,44
 420 643 420 643 412 667.5 c 128,-1,45
 404 692 404 692 389 713 c 128,-1,46
 374 734 374 734 352.5 748.5 c 128,-1,47
 331 763 331 763 304 763 c 2,48,-1
 139 763 l 1,49,-1
 139 493 l 1,37,-1
EndSplineSet
Validated: 1
EndChar

StartChar: S
Encoding: 83 83 54
Width: 562
GlyphClass: 2
Flags: W
LayerCount: 2
Fore
SplineSet
485 771 m 0,0,1
 502 746 502 746 502 725 c 0,2,3
 502 703 502 703 486.5 688 c 128,-1,4
 471 673 471 673 450 673 c 0,5,6
 438 673 438 673 418.5 681.5 c 128,-1,7
 399 690 399 690 390 709 c 1,8,9
 374 729 374 729 348 746 c 128,-1,10
 322 763 322 763 286 763 c 0,11,12
 264 763 264 763 238 754 c 128,-1,13
 212 745 212 745 190 728.5 c 128,-1,14
 168 712 168 712 153.5 688.5 c 128,-1,15
 139 665 139 665 139 637 c 0,16,17
 139 606 139 606 151 586.5 c 128,-1,18
 163 567 163 567 182.5 554.5 c 128,-1,19
 202 542 202 542 227 535.5 c 128,-1,20
 252 529 252 529 277.5 525.5 c 128,-1,21
 303 522 303 522 327.5 518.5 c 128,-1,22
 352 515 352 515 370 509 c 0,23,24
 406 494 406 494 436 467.5 c 128,-1,25
 466 441 466 441 488.5 408 c 128,-1,26
 511 375 511 375 523.5 337.5 c 128,-1,27
 536 300 536 300 536 261 c 0,28,29
 536 207 536 207 516.5 159 c 128,-1,30
 497 111 497 111 463.5 74 c 128,-1,31
 430 37 430 37 384 15.5 c 128,-1,32
 338 -6 338 -6 284 -6 c 0,33,34
 214 -6 214 -6 160.5 27 c 128,-1,35
 107 60 107 60 67 108 c 0,36,37
 63 117 63 117 60.5 127 c 128,-1,38
 58 137 58 137 58 145 c 0,39,40
 58 168 58 168 72.5 182.5 c 128,-1,41
 87 197 87 197 108 197 c 0,42,43
 126 197 126 197 139 188.5 c 128,-1,44
 152 180 152 180 165 168 c 128,-1,45
 178 156 178 156 193.5 142 c 128,-1,46
 209 128 209 128 233 118 c 0,47,48
 256 108 256 108 282 108 c 0,49,50
 315 108 315 108 340.5 121.5 c 128,-1,51
 366 135 366 135 384 156.5 c 128,-1,52
 402 178 402 178 411.5 204.5 c 128,-1,53
 421 231 421 231 421 257 c 0,54,55
 421 279 421 279 413 308 c 0,56,57
 399 356 399 356 376.5 376 c 128,-1,58
 354 396 354 396 326 403 c 128,-1,59
 298 410 298 410 266 411 c 128,-1,60
 234 412 234 412 202 423 c 0,61,62
 167 435 167 435 135 450.5 c 128,-1,63
 103 466 103 466 78.5 490.5 c 128,-1,64
 54 515 54 515 39.5 551.5 c 128,-1,65
 25 588 25 588 25 642 c 0,66,67
 25 691 25 691 49.5 734 c 128,-1,68
 74 777 74 777 112 808.5 c 128,-1,69
 150 840 150 840 195.5 858 c 128,-1,70
 241 876 241 876 283 876 c 0,71,72
 340 876 340 876 393 850.5 c 128,-1,73
 446 825 446 825 485 771 c 0,0,1
EndSplineSet
Validated: 1
EndChar

StartChar: T
Encoding: 84 84 55
Width: 562
GlyphClass: 2
Flags: W
LayerCount: 2
Fore
SplineSet
492 875 m 1,0,1
 516 867 516 867 528 852 c 128,-1,2
 540 837 540 837 540 820 c 0,3,4
 540 802 540 802 526.5 786 c 128,-1,5
 513 770 513 770 487 765 c 1,6,-1
 335 765 l 1,7,-1
 335 62 l 2,8,9
 333 31 333 31 316.5 15.5 c 128,-1,10
 300 0 300 0 280 0 c 0,11,12
 261 0 261 0 245 14 c 128,-1,13
 229 28 229 28 225 57 c 1,14,-1
 225 765 l 1,15,-1
 77 765 l 1,16,17
 48 769 48 769 34 785 c 128,-1,18
 20 801 20 801 20 820 c 0,19,20
 20 840 20 840 35.5 856.5 c 128,-1,21
 51 873 51 873 82 875 c 2,22,-1
 492 875 l 1,0,1
EndSplineSet
Validated: 1
EndChar

StartChar: U
Encoding: 85 85 56
Width: 562
GlyphClass: 2
Flags: W
LayerCount: 2
Fore
SplineSet
420 819 m 1,0,1
 427 846 427 846 443.5 861.5 c 128,-1,2
 460 877 460 877 477 877 c 256,3,4
 494 877 494 877 509.5 864.5 c 128,-1,5
 525 852 525 852 534 827 c 1,6,-1
 534 202 l 1,7,8
 530 151 530 151 512 105 c 128,-1,9
 494 59 494 59 454 27 c 0,10,11
 426 5 426 5 392.5 -5.5 c 128,-1,12
 359 -16 359 -16 324 -17 c 2,13,-1
 289 -17 l 2,14,15
 256 -17 256 -17 224.5 -13.5 c 128,-1,16
 193 -10 193 -10 165 -0.5 c 128,-1,17
 137 9 137 9 112 27 c 128,-1,18
 87 45 87 45 67 75 c 0,19,20
 42 112 42 112 33.5 157.5 c 128,-1,21
 25 203 25 203 25 248 c 2,22,-1
 25 819 l 1,23,24
 32 846 32 846 48 861.5 c 128,-1,25
 64 877 64 877 81 877 c 256,26,27
 98 877 98 877 114 864.5 c 128,-1,28
 130 852 130 852 139 827 c 1,29,-1
 139 248 l 2,30,31
 139 225 139 225 140.5 202 c 128,-1,32
 142 179 142 179 151 158 c 0,33,34
 171 116 171 116 202.5 105.5 c 128,-1,35
 234 95 234 95 271 95 c 2,36,-1
 319 95 l 2,37,38
 336 97 336 97 351.5 101 c 128,-1,39
 367 105 367 105 381 116 c 0,40,41
 407 136 407 136 412.5 162.5 c 128,-1,42
 418 189 418 189 420 218 c 2,43,-1
 420 819 l 1,0,1
EndSplineSet
Validated: 1
EndChar

StartChar: V
Encoding: 86 86 57
Width: 562
GlyphClass: 2
Flags: W
LayerCount: 2
Fore
SplineSet
22 804 m 0,0,1
 21 808 21 808 21 815 c 0,2,3
 21 844 21 844 37.5 859.5 c 128,-1,4
 54 875 54 875 74 875 c 0,5,6
 91 875 91 875 107 863.5 c 128,-1,7
 123 852 123 852 130 827 c 2,8,-1
 280 266 l 1,9,10
 318 410 318 410 356.5 553 c 128,-1,11
 395 696 395 696 434 840 c 1,12,13
 445 858 445 858 459 866.5 c 128,-1,14
 473 875 473 875 487 875 c 0,15,16
 509 875 509 875 524 857.5 c 128,-1,17
 539 840 539 840 539 809 c 1,18,19
 487 617 487 617 436 426.5 c 128,-1,20
 385 236 385 236 334 44 c 0,21,22
 326 21 326 21 311.5 10.5 c 128,-1,23
 297 0 297 0 280 0 c 0,24,25
 265 0 265 0 251 9.5 c 128,-1,26
 237 19 237 19 227 39 c 1,27,28
 176 231 176 231 125 421.5 c 128,-1,29
 74 612 74 612 22 804 c 0,0,1
EndSplineSet
Validated: 1
EndChar

StartChar: W
Encoding: 87 87 58
Width: 562
GlyphClass: 2
Flags: W
LayerCount: 2
Fore
SplineSet
20 822 m 1,0,1
 25 848 25 848 41 861.5 c 128,-1,2
 57 875 57 875 75 875 c 0,3,4
 92 875 92 875 107 863 c 128,-1,5
 122 851 122 851 130 827 c 1,6,-1
 130 268 l 1,7,8
 154 313 154 313 178 357.5 c 128,-1,9
 202 402 202 402 228 447 c 0,10,11
 238 464 238 464 251.5 473 c 128,-1,12
 265 482 265 482 279 482 c 0,13,14
 306 482 306 482 328 451 c 1,15,-1
 430 268 l 1,16,-1
 430 819 l 1,17,18
 435 845 435 845 451 858.5 c 128,-1,19
 467 872 467 872 485 872 c 0,20,21
 502 872 502 872 517 860 c 128,-1,22
 532 848 532 848 540 824 c 1,23,-1
 540 62 l 2,24,25
 538 33 538 33 523 16.5 c 128,-1,26
 508 0 508 0 488 0 c 0,27,28
 462 0 462 0 440 23 c 1,29,30
 400 96 400 96 360 168.5 c 128,-1,31
 320 241 320 241 279 313 c 1,32,33
 240 241 240 241 201 170 c 128,-1,34
 162 99 162 99 122 27 c 0,35,36
 111 13 111 13 98 6.5 c 128,-1,37
 85 0 85 0 72 0 c 0,38,39
 53 0 53 0 38.5 14.5 c 128,-1,40
 24 29 24 29 20 57 c 1,41,-1
 20 822 l 1,42,-1
 20 822 l 1,0,1
EndSplineSet
Validated: 5
EndChar

StartChar: X
Encoding: 88 88 59
Width: 562
GlyphClass: 2
Flags: W
LayerCount: 2
Fore
SplineSet
30 788 m 0,0,1
 21 806 21 806 21 822 c 0,2,3
 21 845 21 845 36.5 859.5 c 128,-1,4
 52 874 52 874 72 874 c 0,5,6
 86 874 86 874 99.5 867 c 128,-1,7
 113 860 113 860 124 844 c 0,8,9
 163 771 163 771 202 698.5 c 128,-1,10
 241 626 241 626 280 554 c 1,11,12
 318 626 318 626 356 697 c 128,-1,13
 394 768 394 768 434 840 c 0,14,15
 444 858 444 858 458.5 866 c 128,-1,16
 473 874 473 874 487 874 c 0,17,18
 507 874 507 874 522.5 859.5 c 128,-1,19
 538 845 538 845 538 821 c 0,20,21
 538 807 538 807 532 792 c 0,22,23
 484 703 484 703 437 614.5 c 128,-1,24
 390 526 390 526 342 437 c 1,25,-1
 534 79 l 2,26,27
 536 72 536 72 537 66 c 128,-1,28
 538 60 538 60 538 55 c 0,29,30
 538 30 538 30 523 15.5 c 128,-1,31
 508 1 508 1 488 1 c 0,32,33
 476 1 476 1 463.5 6 c 128,-1,34
 451 11 451 11 440 23 c 1,35,36
 400 98 400 98 360.5 172 c 128,-1,37
 321 246 321 246 280 321 c 1,38,-1
 122 27 l 2,39,40
 110 13 110 13 97 7 c 128,-1,41
 84 1 84 1 72 1 c 0,42,43
 52 1 52 1 37 16 c 128,-1,44
 22 31 22 31 22 57 c 0,45,46
 22 62 22 62 22.5 66 c 128,-1,47
 23 70 23 70 24 75 c 0,48,49
 72 166 72 166 120.5 256.5 c 128,-1,50
 169 347 169 347 218 438 c 1,51,52
 170 526 170 526 123.5 613 c 128,-1,53
 77 700 77 700 30 788 c 0,0,1
EndSplineSet
Validated: 1
EndChar

StartChar: Y
Encoding: 89 89 60
Width: 562
GlyphClass: 2
Flags: W
LayerCount: 2
Fore
SplineSet
335 62 m 1,0,1
 333 31 333 31 316.5 15.5 c 128,-1,2
 300 0 300 0 280 0 c 0,3,4
 261 0 261 0 245 14 c 128,-1,5
 229 28 229 28 225 57 c 1,6,-1
 225 413 l 1,7,8
 174 507 174 507 126 600.5 c 128,-1,9
 78 694 78 694 30 788 c 0,10,11
 21 806 21 806 21 822 c 0,12,13
 21 845 21 845 36.5 859.5 c 128,-1,14
 52 874 52 874 72 874 c 0,15,16
 86 874 86 874 99.5 867 c 128,-1,17
 113 860 113 860 124 844 c 0,18,19
 163 769 163 769 202 695 c 128,-1,20
 241 621 241 621 280 546 c 1,21,22
 318 620 318 620 355.5 693.5 c 128,-1,23
 393 767 393 767 434 840 c 0,24,25
 444 858 444 858 458.5 866 c 128,-1,26
 473 874 473 874 487 874 c 0,27,28
 507 874 507 874 522.5 859.5 c 128,-1,29
 538 845 538 845 538 821 c 0,30,31
 538 807 538 807 532 792 c 0,32,33
 481 698 481 698 432.5 603.5 c 128,-1,34
 384 509 384 509 335 414 c 1,35,-1
 335 62 l 1,36,-1
 335 62 l 1,0,1
EndSplineSet
Validated: 5
EndChar

StartChar: Z
Encoding: 90 90 61
Width: 562
GlyphClass: 2
Flags: W
LayerCount: 2
Fore
SplineSet
77 765 m 1,0,1
 48 769 48 769 34 785 c 128,-1,2
 20 801 20 801 20 820 c 0,3,4
 20 840 20 840 35.5 857.5 c 128,-1,5
 51 875 51 875 82 875 c 2,6,-1
 492 875 l 1,7,8
 538 860 538 860 538 821 c 0,9,10
 538 807 538 807 532 792 c 0,11,12
 440 620 440 620 349 450.5 c 128,-1,13
 258 281 258 281 167 110 c 1,14,-1
 492 110 l 1,15,16
 516 102 516 102 528 87 c 128,-1,17
 540 72 540 72 540 55 c 0,18,19
 540 37 540 37 526.5 21 c 128,-1,20
 513 5 513 5 487 0 c 1,21,-1
 77 0 l 2,22,23
 51 3 51 3 36.5 18 c 128,-1,24
 22 33 22 33 22 56 c 0,25,26
 22 61 22 61 22 65.5 c 128,-1,27
 22 70 22 70 24 75 c 0,28,29
 117 249 117 249 208.5 420 c 128,-1,30
 300 591 300 591 394 765 c 1,31,-1
 77 765 l 1,32,-1
 77 765 l 1,0,1
EndSplineSet
Validated: 5
EndChar

StartChar: bracketleft
Encoding: 91 91 62
Width: 562
GlyphClass: 2
Flags: W
LayerCount: 2
Fore
SplineSet
441 875 m 1,0,1
 465 867 465 867 477 852 c 128,-1,2
 489 837 489 837 489 820 c 0,3,4
 489 802 489 802 475.5 786 c 128,-1,5
 462 770 462 770 436 765 c 1,6,-1
 335 765 l 1,7,-1
 335 110 l 1,8,-1
 441 110 l 1,9,10
 465 102 465 102 477 87 c 128,-1,11
 489 72 489 72 489 55 c 0,12,13
 489 37 489 37 475.5 21 c 128,-1,14
 462 5 462 5 436 0 c 1,15,-1
 282 0 l 1,16,17
 232 7 232 7 225 57 c 1,18,-1
 225 822 l 1,19,20
 235 872 235 872 287 875 c 2,21,-1
 441 875 l 1,22,-1
 441 875 l 1,0,1
EndSplineSet
Validated: 5
EndChar

StartChar: backslash
Encoding: 92 92 63
Width: 562
GlyphClass: 2
Flags: W
LayerCount: 2
Fore
SplineSet
30 788 m 0,0,1
 21 806 21 806 21 822 c 0,2,3
 21 845 21 845 36.5 859.5 c 128,-1,4
 52 874 52 874 72 874 c 0,5,6
 86 874 86 874 99.5 867 c 128,-1,7
 113 860 113 860 124 844 c 0,8,9
 227 652 227 652 329 461.5 c 128,-1,10
 431 271 431 271 534 79 c 0,11,12
 536 72 536 72 537 66 c 128,-1,13
 538 60 538 60 538 55 c 0,14,15
 538 30 538 30 523 15.5 c 128,-1,16
 508 1 508 1 488 1 c 0,17,18
 476 1 476 1 463.5 6 c 128,-1,19
 451 11 451 11 440 23 c 1,20,21
 337 215 337 215 235 405.5 c 128,-1,22
 133 596 133 596 30 788 c 0,0,1
EndSplineSet
Validated: 1
EndChar

StartChar: bracketright
Encoding: 93 93 64
Width: 564
GlyphClass: 2
Flags: W
LayerCount: 2
Fore
SplineSet
127 875 m 1,0,-1
 281 875 l 2,1,2
 333 872 333 872 343 822 c 1,3,-1
 343 57 l 1,4,5
 336 7 336 7 286 0 c 1,6,-1
 132 0 l 1,7,8
 106 5 106 5 92.5 21 c 128,-1,9
 79 37 79 37 79 55 c 0,10,11
 79 72 79 72 91 87 c 128,-1,12
 103 102 103 102 127 110 c 1,13,-1
 233 110 l 1,14,-1
 233 765 l 1,15,-1
 132 765 l 1,16,17
 106 770 106 770 92.5 786 c 128,-1,18
 79 802 79 802 79 820 c 0,19,20
 79 837 79 837 91 852 c 128,-1,21
 103 867 103 867 127 875 c 1,0,-1
EndSplineSet
Validated: 1
EndChar

StartChar: underscore
Encoding: 95 95 65
Width: 562
GlyphClass: 2
Flags: W
LayerCount: 2
Fore
SplineSet
77 0 m 5,0,1
 48 4 48 4 34 20 c 132,-1,2
 20 36 20 36 20 55 c 4,3,4
 20 75 20 75 35.5 92.5 c 132,-1,5
 51 110 51 110 82 110 c 6,6,-1
 492 110 l 5,7,8
 516 102 516 102 528 87 c 132,-1,9
 540 72 540 72 540 55 c 4,10,11
 540 37 540 37 526.5 21 c 132,-1,12
 513 5 513 5 487 0 c 5,13,-1
 77 0 l 5,14,-1
 77 0 l 5,0,1
EndSplineSet
Validated: 5
EndChar

StartChar: a
Encoding: 97 97 67
Width: 562
GlyphClass: 2
Flags: W
LayerCount: 2
Fore
SplineSet
510 101 m 0,0,1
 526 90 526 90 533 76.5 c 128,-1,2
 540 63 540 63 540 49 c 0,3,4
 540 29 540 29 525.5 13.5 c 128,-1,5
 511 -2 511 -2 488 -2 c 0,6,7
 468 -2 468 -2 447.5 11 c 128,-1,8
 427 24 427 24 415 38 c 1,9,10
 383 18 383 18 343.5 8 c 128,-1,11
 304 -2 304 -2 263 -2 c 256,12,13
 222 -2 222 -2 180.5 8.5 c 128,-1,14
 139 19 139 19 106 40 c 128,-1,15
 73 61 73 61 52 93 c 128,-1,16
 31 125 31 125 31 167 c 0,17,18
 31 212 31 212 52 244 c 128,-1,19
 73 276 73 276 106.5 296.5 c 128,-1,20
 140 317 140 317 182 327 c 128,-1,21
 224 337 224 337 265 337 c 0,22,23
 295 337 295 337 323.5 334 c 128,-1,24
 352 331 352 331 379 319 c 1,25,-1
 379 320 l 2,26,27
 379 348 379 348 368.5 363.5 c 128,-1,28
 358 379 358 379 341.5 385.5 c 128,-1,29
 325 392 325 392 305.5 393 c 128,-1,30
 286 394 286 394 269 394 c 0,31,32
 243 394 243 394 216.5 392 c 128,-1,33
 190 390 190 390 167 380 c 0,34,35
 162 379 162 379 158 378.5 c 128,-1,36
 154 378 154 378 149 378 c 0,37,38
 123 378 123 378 108 393 c 128,-1,39
 93 408 93 408 93 428 c 0,40,41
 93 450 93 450 105 463.5 c 128,-1,42
 117 477 117 477 135 484.5 c 128,-1,43
 153 492 153 492 174 494.5 c 128,-1,44
 195 497 195 497 213 497 c 0,45,46
 273 497 273 497 324 494.5 c 128,-1,47
 375 492 375 492 412 472 c 128,-1,48
 449 452 449 452 470 407 c 128,-1,49
 491 362 491 362 491 278 c 0,50,51
 491 246 491 246 490 218 c 128,-1,52
 489 190 489 190 489 172 c 0,53,54
 489 162 489 162 488.5 152 c 128,-1,55
 488 142 488 142 489.5 132.5 c 128,-1,56
 491 123 491 123 495.5 115 c 128,-1,57
 500 107 500 107 510 101 c 0,0,1
379 167 m 0,58,59
 377 185 377 185 366 197.5 c 128,-1,60
 355 210 355 210 338.5 217.5 c 128,-1,61
 322 225 322 225 302 228.5 c 128,-1,62
 282 232 282 232 262 232 c 0,63,64
 247 232 247 232 226 229 c 128,-1,65
 205 226 205 226 186 218.5 c 128,-1,66
 167 211 167 211 154 198.5 c 128,-1,67
 141 186 141 186 141 167 c 0,68,69
 141 149 141 149 155 137.5 c 128,-1,70
 169 126 169 126 188 119.5 c 128,-1,71
 207 113 207 113 227.5 110 c 128,-1,72
 248 107 248 107 262 107 c 0,73,74
 281 107 281 107 301.5 110 c 128,-1,75
 322 113 322 113 338.5 120 c 128,-1,76
 355 127 355 127 366 138.5 c 128,-1,77
 377 150 377 150 379 167 c 0,58,59
505 103 m 1,78,79
 503 103 503 103 502 104 c 1,80,-1
 504 102 l 2,81,82
 505 102 505 102 505 103 c 1,78,79
EndSplineSet
Validated: 1
EndChar

StartChar: b
Encoding: 98 98 68
Width: 562
GlyphClass: 2
Flags: W
LayerCount: 2
Fore
SplineSet
203 8 m 0,0,1
 165 19 165 19 136 41 c 1,2,3
 130 19 130 19 115.5 8 c 128,-1,4
 101 -3 101 -3 84 -3 c 0,5,6
 65 -3 65 -3 49 11 c 128,-1,7
 33 25 33 25 29 54 c 1,8,-1
 29 751 l 1,9,10
 34 777 34 777 50 790.5 c 128,-1,11
 66 804 66 804 84 804 c 0,12,13
 101 804 101 804 116 792 c 128,-1,14
 131 780 131 780 139 756 c 1,15,-1
 139 434 l 1,16,17
 169 455 169 455 206.5 465 c 128,-1,18
 244 475 244 475 279 475 c 0,19,20
 327 475 327 475 371 458.5 c 128,-1,21
 415 442 415 442 449.5 412 c 128,-1,22
 484 382 484 382 505 339 c 128,-1,23
 526 296 526 296 528 243 c 0,24,25
 528 190 528 190 508 144.5 c 128,-1,26
 488 99 488 99 453.5 66 c 128,-1,27
 419 33 419 33 374 14.5 c 128,-1,28
 329 -4 329 -4 278 -4 c 0,29,30
 240 -4 240 -4 203 8 c 0,0,1
211 350 m 0,31,32
 176 334 176 334 160 303 c 128,-1,33
 144 272 144 272 139 237 c 1,34,35
 142 213 142 213 151.5 189.5 c 128,-1,36
 161 166 161 166 178 147.5 c 128,-1,37
 195 129 195 129 220 117.5 c 128,-1,38
 245 106 245 106 279 106 c 0,39,40
 306 106 306 106 331 115.5 c 128,-1,41
 356 125 356 125 375.5 142 c 128,-1,42
 395 159 395 159 406.5 183.5 c 128,-1,43
 418 208 418 208 418 238 c 0,44,45
 418 269 418 269 406.5 292.5 c 128,-1,46
 395 316 395 316 376 332 c 128,-1,47
 357 348 357 348 332 356 c 128,-1,48
 307 364 307 364 280 364 c 0,49,50
 242 364 242 364 211 350 c 0,31,32
EndSplineSet
Validated: 1
EndChar

StartChar: c
Encoding: 99 99 69
Width: 562
GlyphClass: 2
Flags: W
LayerCount: 2
Fore
SplineSet
477 470 m 1,0,1
 493 459 493 459 500 445.5 c 128,-1,2
 507 432 507 432 507 418 c 0,3,4
 507 398 507 398 491.5 382.5 c 128,-1,5
 476 367 476 367 448 367 c 0,6,7
 439 367 439 367 423.5 370 c 128,-1,8
 408 373 408 373 390.5 376.5 c 128,-1,9
 373 380 373 380 355 383 c 128,-1,10
 337 386 337 386 321 386 c 0,11,12
 282 386 282 386 249 374 c 128,-1,13
 216 362 216 362 191.5 342 c 128,-1,14
 167 322 167 322 153 295.5 c 128,-1,15
 139 269 139 269 139 241 c 256,16,17
 139 213 139 213 154.5 188.5 c 128,-1,18
 170 164 170 164 195.5 146 c 128,-1,19
 221 128 221 128 254 118 c 128,-1,20
 287 108 287 108 322 108 c 0,21,22
 351 108 351 108 380.5 113 c 128,-1,23
 410 118 410 118 442 126 c 1,24,25
 473 126 473 126 490.5 111 c 128,-1,26
 508 96 508 96 508 74 c 0,27,28
 508 60 508 60 499.5 46 c 128,-1,29
 491 32 491 32 473 21 c 1,30,31
 435 12 435 12 396.5 4.5 c 128,-1,32
 358 -3 358 -3 319 -3 c 0,33,34
 260 -3 260 -3 207.5 18 c 128,-1,35
 155 39 155 39 114.5 74 c 128,-1,36
 74 109 74 109 50.5 154.5 c 128,-1,37
 27 200 27 200 27 250 c 0,38,39
 27 288 27 288 42 326 c 128,-1,40
 57 364 57 364 90 400 c 0,41,42
 138 451 138 451 198 472.5 c 128,-1,43
 258 494 258 494 323 494 c 0,44,45
 362 494 362 494 401 487.5 c 128,-1,46
 440 481 440 481 477 470 c 1,0,1
EndSplineSet
Validated: 1
EndChar

StartChar: d
Encoding: 100 100 70
Width: 562
GlyphClass: 2
Flags: W
LayerCount: 2
Fore
SplineSet
528 59 m 1,0,1
 526 28 526 28 509.5 12.5 c 128,-1,2
 493 -3 493 -3 473 -3 c 0,3,4
 456 -3 456 -3 441.5 7.5 c 128,-1,5
 427 18 427 18 421 40 c 1,6,7
 389 19 389 19 352.5 7.5 c 128,-1,8
 316 -4 316 -4 278 -4 c 0,9,10
 239 -4 239 -4 202 8.5 c 128,-1,11
 165 21 165 21 134 42.5 c 128,-1,12
 103 64 103 64 78.5 94.5 c 128,-1,13
 54 125 54 125 41 162 c 0,14,15
 34 179 34 179 32.5 199 c 128,-1,16
 31 219 31 219 29 238 c 0,17,18
 33 284 33 284 51 327 c 128,-1,19
 69 370 69 370 100 403 c 128,-1,20
 131 436 131 436 175.5 455.5 c 128,-1,21
 220 475 220 475 278 475 c 0,22,23
 355 475 355 475 418 435 c 1,24,-1
 418 751 l 1,25,26
 423 777 423 777 439 790.5 c 128,-1,27
 455 804 455 804 473 804 c 0,28,29
 490 804 490 804 505 792 c 128,-1,30
 520 780 520 780 528 756 c 1,31,-1
 528 243 l 1,32,-1
 528 59 l 1,33,-1
 528 59 l 1,0,1
211 350 m 0,34,35
 176 334 176 334 160 303 c 128,-1,36
 144 272 144 272 139 237 c 1,37,38
 142 213 142 213 151.5 189.5 c 128,-1,39
 161 166 161 166 178 147.5 c 128,-1,40
 195 129 195 129 220 117.5 c 128,-1,41
 245 106 245 106 279 106 c 0,42,43
 306 106 306 106 330.5 115.5 c 128,-1,44
 355 125 355 125 374.5 142 c 128,-1,45
 394 159 394 159 406 183.5 c 128,-1,46
 418 208 418 208 418 238 c 2,47,-1
 418 246 l 2,48,49
 416 275 416 275 404 297 c 128,-1,50
 392 319 392 319 373 334 c 128,-1,51
 354 349 354 349 330 356.5 c 128,-1,52
 306 364 306 364 280 364 c 0,53,54
 242 364 242 364 211 350 c 0,34,35
EndSplineSet
Validated: 5
EndChar

StartChar: e
Encoding: 101 101 71
Width: 562
GlyphClass: 2
Flags: W
LayerCount: 2
Fore
SplineSet
144 212 m 1,0,1
 149 191 149 191 161 171.5 c 128,-1,2
 173 152 173 152 191.5 137 c 128,-1,3
 210 122 210 122 235 113 c 128,-1,4
 260 104 260 104 292 104 c 0,5,6
 330 104 330 104 368 117 c 128,-1,7
 406 130 406 130 435 150 c 0,8,9
 450 156 450 156 464 156 c 0,10,11
 488 156 488 156 502.5 141.5 c 128,-1,12
 517 127 517 127 517 106 c 0,13,14
 517 79 517 79 492.5 58.5 c 128,-1,15
 468 38 468 38 433 23.5 c 128,-1,16
 398 9 398 9 359 2 c 128,-1,17
 320 -5 320 -5 290 -5 c 0,18,19
 229 -5 229 -5 180.5 16.5 c 128,-1,20
 132 38 132 38 98.5 74 c 128,-1,21
 65 110 65 110 47.5 155.5 c 128,-1,22
 30 201 30 201 30 249 c 0,23,24
 30 307 30 307 52.5 354.5 c 128,-1,25
 75 402 75 402 111 436 c 128,-1,26
 147 470 147 470 191.5 488.5 c 128,-1,27
 236 507 236 507 280 507 c 0,28,29
 325 507 325 507 368 491 c 128,-1,30
 411 475 411 475 445.5 445 c 128,-1,31
 480 415 480 415 502 371.5 c 128,-1,32
 524 328 524 328 528 274 c 1,33,34
 525 222 525 222 475 212 c 1,35,-1
 144 212 l 1,0,1
170 340 m 0,36,37
 167 335 167 335 164.5 331 c 128,-1,38
 162 327 162 327 160 322 c 1,39,-1
 403 322 l 1,40,41
 384 359 384 359 350 378.5 c 128,-1,42
 316 398 316 398 278 398 c 0,43,44
 247 398 247 398 218.5 384 c 128,-1,45
 190 370 190 370 170 340 c 0,36,37
EndSplineSet
Validated: 1
EndChar

StartChar: f
Encoding: 102 102 72
Width: 562
GlyphClass: 2
Flags: W
LayerCount: 2
Fore
SplineSet
132 335 m 1,0,1
 103 339 103 339 89 355 c 128,-1,2
 75 371 75 371 75 390 c 0,3,4
 75 410 75 410 90.5 426.5 c 128,-1,5
 106 443 106 443 137 445 c 2,6,-1
 187 445 l 1,7,8
 187 494 187 494 187.5 542 c 128,-1,9
 188 590 188 590 188 638 c 0,10,11
 188 677 188 677 202.5 706.5 c 128,-1,12
 217 736 217 736 240 756.5 c 128,-1,13
 263 777 263 777 293 787.5 c 128,-1,14
 323 798 323 798 353 798 c 0,15,16
 407 798 407 798 456 766 c 0,17,18
 482 749 482 749 492 728 c 128,-1,19
 502 707 502 707 513 674 c 1,20,21
 511 644 511 644 495 628 c 128,-1,22
 479 612 479 612 459 612 c 0,23,24
 444 612 444 612 429.5 621.5 c 128,-1,25
 415 631 415 631 405 651 c 1,26,27
 401 674 401 674 384.5 681.5 c 128,-1,28
 368 689 368 689 354 689 c 256,29,30
 340 689 340 689 325 682 c 128,-1,31
 310 675 310 675 302 658 c 1,32,33
 300 604 300 604 299.5 551.5 c 128,-1,34
 299 499 299 499 298 445 c 1,35,-1
 444 445 l 1,36,37
 468 437 468 437 480 422 c 128,-1,38
 492 407 492 407 492 390 c 0,39,40
 492 372 492 372 478.5 356 c 128,-1,41
 465 340 465 340 439 335 c 1,42,-1
 298 335 l 1,43,44
 297 312 297 312 297 289 c 128,-1,45
 297 266 297 266 297 243 c 0,46,47
 297 197 297 197 297.5 151 c 128,-1,48
 298 105 298 105 298 59 c 0,49,50
 296 28 296 28 279.5 12.5 c 128,-1,51
 263 -3 263 -3 243 -3 c 0,52,53
 224 -3 224 -3 208 11 c 128,-1,54
 192 25 192 25 188 54 c 1,55,56
 188 124 188 124 187.5 194 c 128,-1,57
 187 264 187 264 187 335 c 1,58,-1
 132 335 l 1,59,-1
 132 335 l 1,0,1
EndSplineSet
Validated: 5
EndChar

StartChar: g
Encoding: 103 103 73
Width: 562
GlyphClass: 2
Flags: W
LayerCount: 2
Fore
SplineSet
180 490 m 0,0,1
 226 505 226 505 278 505 c 0,2,3
 316 505 316 505 353.5 496 c 128,-1,4
 391 487 391 487 423 469 c 1,5,6
 431 487 431 487 444.5 496.5 c 128,-1,7
 458 506 458 506 473 506 c 0,8,9
 490 506 490 506 505 494 c 128,-1,10
 520 482 520 482 528 458 c 1,11,-1
 528 110 l 2,12,13
 528 62 528 62 503.5 27 c 128,-1,14
 479 -8 479 -8 439.5 -31.5 c 128,-1,15
 400 -55 400 -55 351 -66.5 c 128,-1,16
 302 -78 302 -78 253 -78 c 0,17,18
 219 -78 219 -78 181.5 -72 c 128,-1,19
 144 -66 144 -66 112.5 -53 c 128,-1,20
 81 -40 81 -40 60.5 -21.5 c 128,-1,21
 40 -3 40 -3 40 23 c 0,22,23
 40 44 40 44 54.5 59 c 128,-1,24
 69 74 69 74 91 74 c 0,25,26
 110 74 110 74 128 63 c 0,27,28
 129 64 129 64 137 58 c 128,-1,29
 145 52 145 52 157 47 c 0,30,31
 180 37 180 37 208.5 35.5 c 128,-1,32
 237 34 237 34 271 34 c 0,33,34
 294 34 294 34 317.5 36.5 c 128,-1,35
 341 39 341 39 361 46 c 128,-1,36
 381 53 381 53 395 64 c 128,-1,37
 409 75 409 75 414 93 c 0,38,39
 418 107 418 107 420 121.5 c 128,-1,40
 422 136 422 136 424 150 c 1,41,42
 391 130 391 130 352.5 119.5 c 128,-1,43
 314 109 314 109 275 109 c 256,44,45
 236 109 236 109 192.5 123 c 128,-1,46
 149 137 149 137 113 163 c 128,-1,47
 77 189 77 189 53 225.5 c 128,-1,48
 29 262 29 262 29 308 c 0,49,50
 29 341 29 341 41.5 369.5 c 128,-1,51
 54 398 54 398 75 421.5 c 128,-1,52
 96 445 96 445 123.5 462.5 c 128,-1,53
 151 480 151 480 180 490 c 0,0,1
418 310 m 1,54,55
 415 333 415 333 401.5 349 c 128,-1,56
 388 365 388 365 368 375.5 c 128,-1,57
 348 386 348 386 324 390.5 c 128,-1,58
 300 395 300 395 276 395 c 0,59,60
 258 395 258 395 234.5 390.5 c 128,-1,61
 211 386 211 386 189.5 375.5 c 128,-1,62
 168 365 168 365 153.5 349 c 128,-1,63
 139 333 139 333 139 309 c 0,64,65
 140 287 140 287 154.5 270 c 128,-1,66
 169 253 169 253 191 242 c 128,-1,67
 213 231 213 231 237.5 225 c 128,-1,68
 262 219 262 219 282 219 c 256,69,70
 302 219 302 219 325 225 c 128,-1,71
 348 231 348 231 367.5 242.5 c 128,-1,72
 387 254 387 254 401 271 c 128,-1,73
 415 288 415 288 418 310 c 1,54,55
EndSplineSet
Validated: 1
EndChar

StartChar: h
Encoding: 104 104 74
Width: 562
GlyphClass: 2
Flags: W
LayerCount: 2
Fore
SplineSet
139 59 m 1,0,1
 137 28 137 28 120.5 12.5 c 128,-1,2
 104 -3 104 -3 84 -3 c 0,3,4
 65 -3 65 -3 49 11 c 128,-1,5
 33 25 33 25 29 54 c 1,6,-1
 29 751 l 1,7,8
 34 777 34 777 50 790.5 c 128,-1,9
 66 804 66 804 84 804 c 0,10,11
 101 804 101 804 116 792 c 128,-1,12
 131 780 131 780 139 756 c 1,13,-1
 139 471 l 1,14,15
 171 489 171 489 206.5 498 c 128,-1,16
 242 507 242 507 279 507 c 0,17,18
 332 507 332 507 381 489 c 128,-1,19
 430 471 430 471 465 434 c 0,20,21
 486 411 486 411 499.5 385.5 c 128,-1,22
 513 360 513 360 520.5 331.5 c 128,-1,23
 528 303 528 303 530.5 273.5 c 128,-1,24
 533 244 533 244 533 214 c 0,25,26
 533 173 533 173 530.5 134 c 128,-1,27
 528 95 528 95 528 59 c 0,28,29
 526 28 526 28 509.5 12.5 c 128,-1,30
 493 -3 493 -3 473 -3 c 0,31,32
 450 -3 450 -3 434 16 c 128,-1,33
 418 35 418 35 418 73 c 0,34,35
 418 123 418 123 420 163 c 128,-1,36
 422 203 422 203 422 235 c 0,37,38
 422 321 422 321 381.5 359.5 c 128,-1,39
 341 398 341 398 274 398 c 0,40,41
 252 398 252 398 228.5 391.5 c 128,-1,42
 205 385 205 385 185 372.5 c 128,-1,43
 165 360 165 360 152 340.5 c 128,-1,44
 139 321 139 321 139 296 c 2,45,-1
 139 59 l 1,46,-1
 139 59 l 1,0,1
EndSplineSet
Validated: 5
EndChar

StartChar: i
Encoding: 105 105 75
Width: 562
GlyphClass: 2
Flags: W
LayerCount: 2
Fore
SplineSet
200 -3 m 1,0,1
 171 1 171 1 157 17 c 128,-1,2
 143 33 143 33 143 52 c 0,3,4
 143 72 143 72 158.5 88.5 c 128,-1,5
 174 105 174 105 205 107 c 2,6,-1
 234 107 l 1,7,8
 234 140 234 140 233 178 c 128,-1,9
 232 216 232 216 231.5 253.5 c 128,-1,10
 231 291 231 291 230.5 325.5 c 128,-1,11
 230 360 230 360 230 386 c 1,12,-1
 220 386 l 1,13,14
 191 390 191 390 177 406 c 128,-1,15
 163 422 163 422 163 441 c 0,16,17
 163 497 163 497 258 497 c 0,18,19
 299 497 299 497 322 478.5 c 128,-1,20
 345 460 345 460 345 428 c 2,21,-1
 345 107 l 1,22,-1
 400 107 l 1,23,24
 424 99 424 99 436 84 c 128,-1,25
 448 69 448 69 448 52 c 0,26,27
 448 34 448 34 434.5 18 c 128,-1,28
 421 2 421 2 395 -3 c 1,29,-1
 200 -3 l 1,30,-1
 200 -3 l 1,0,1
235 669 m 1,31,32
 240 695 240 695 256 708.5 c 128,-1,33
 272 722 272 722 290 722 c 0,34,35
 307 722 307 722 322 710 c 128,-1,36
 337 698 337 698 345 674 c 1,37,-1
 345 664 l 2,38,39
 343 633 343 633 326.5 617.5 c 128,-1,40
 310 602 310 602 290 602 c 0,41,42
 271 602 271 602 255 616 c 128,-1,43
 239 630 239 630 235 659 c 1,44,-1
 235 669 l 1,45,-1
 235 669 l 1,31,32
EndSplineSet
Validated: 5
EndChar

StartChar: j
Encoding: 106 106 76
Width: 562
GlyphClass: 2
Flags: W
LayerCount: 2
Fore
SplineSet
418 453 m 1,0,1
 423 479 423 479 439 492.5 c 128,-1,2
 455 506 455 506 473 506 c 0,3,4
 490 506 490 506 505 494 c 128,-1,5
 520 482 520 482 528 458 c 1,6,-1
 528 110 l 2,7,8
 528 62 528 62 503.5 27 c 128,-1,9
 479 -8 479 -8 439.5 -31.5 c 128,-1,10
 400 -55 400 -55 351 -66.5 c 128,-1,11
 302 -78 302 -78 253 -78 c 0,12,13
 219 -78 219 -78 181.5 -72 c 128,-1,14
 144 -66 144 -66 112.5 -53 c 128,-1,15
 81 -40 81 -40 60.5 -21.5 c 128,-1,16
 40 -3 40 -3 40 23 c 0,17,18
 40 44 40 44 54.5 59 c 128,-1,19
 69 74 69 74 91 74 c 0,20,21
 101 74 101 74 105 73 c 128,-1,22
 109 72 109 72 114 69 c 128,-1,23
 119 66 119 66 128 60.5 c 128,-1,24
 137 55 137 55 157 47 c 0,25,26
 180 37 180 37 211 35 c 128,-1,27
 242 33 242 33 275 33 c 0,28,29
 314 33 314 33 350.5 44 c 128,-1,30
 387 55 387 55 404 87 c 0,31,32
 415 109 415 109 417.5 148 c 128,-1,33
 420 187 420 187 420 235 c 0,34,35
 420 289 420 289 419 347 c 128,-1,36
 418 405 418 405 418 453 c 1,0,1
416 669 m 1,37,38
 421 695 421 695 437 708.5 c 128,-1,39
 453 722 453 722 471 722 c 0,40,41
 488 722 488 722 503 710 c 128,-1,42
 518 698 518 698 526 674 c 1,43,-1
 526 664 l 2,44,45
 524 633 524 633 507.5 617.5 c 128,-1,46
 491 602 491 602 471 602 c 0,47,48
 452 602 452 602 436 616 c 128,-1,49
 420 630 420 630 416 659 c 1,50,-1
 416 669 l 1,51,-1
 416 669 l 1,37,38
EndSplineSet
Validated: 5
EndChar

StartChar: k
Encoding: 107 107 77
Width: 562
GlyphClass: 2
Flags: W
LayerCount: 2
Fore
SplineSet
139 59 m 1,0,1
 137 28 137 28 120.5 12.5 c 128,-1,2
 104 -3 104 -3 84 -3 c 0,3,4
 65 -3 65 -3 49 11 c 128,-1,5
 33 25 33 25 29 54 c 1,6,-1
 29 751 l 1,7,8
 34 777 34 777 50 790.5 c 128,-1,9
 66 804 66 804 84 804 c 0,10,11
 101 804 101 804 116 792 c 128,-1,12
 131 780 131 780 139 756 c 1,13,-1
 139 329 l 1,14,15
 216 371 216 371 291.5 413.5 c 128,-1,16
 367 456 367 456 445 499 c 0,17,18
 460 505 460 505 474 505 c 0,19,20
 498 505 498 505 512.5 489.5 c 128,-1,21
 527 474 527 474 527 454 c 0,22,23
 527 440 527 440 519 426 c 128,-1,24
 511 412 511 412 493 401 c 0,25,26
 487 398 487 398 472 389.5 c 128,-1,27
 457 381 457 381 437 369.5 c 128,-1,28
 417 358 417 358 394.5 345.5 c 128,-1,29
 372 333 372 333 352 322 c 128,-1,30
 332 311 332 311 316.5 302.5 c 128,-1,31
 301 294 301 294 296 291 c 1,32,33
 350 241 350 241 403.5 191 c 128,-1,34
 457 141 457 141 512 91 c 1,35,36
 527 68 527 68 527 49 c 0,37,38
 527 27 527 27 512.5 13 c 128,-1,39
 498 -1 498 -1 475 -1 c 0,40,41
 457 -1 457 -1 441 7 c 1,42,43
 378 64 378 64 317.5 121 c 128,-1,44
 257 178 257 178 194 235 c 1,45,46
 180 227 180 227 166.5 219.5 c 128,-1,47
 153 212 153 212 139 204 c 1,48,-1
 139 59 l 1,49,-1
 139 59 l 1,0,1
EndSplineSet
Validated: 5
EndChar

StartChar: l
Encoding: 108 108 78
Width: 562
GlyphClass: 2
Flags: W
LayerCount: 2
Fore
SplineSet
203 -3 m 1,0,1
 174 1 174 1 160 17 c 128,-1,2
 146 33 146 33 146 52 c 0,3,4
 146 72 146 72 161.5 88.5 c 128,-1,5
 177 105 177 105 208 107 c 2,6,-1
 238 107 l 1,7,-1
 238 694 l 1,8,-1
 223 694 l 1,9,10
 194 698 194 698 180 714 c 128,-1,11
 166 730 166 730 166 749 c 0,12,13
 166 769 166 769 181.5 785.5 c 128,-1,14
 197 802 197 802 228 804 c 0,15,16
 251 804 251 804 272.5 803 c 128,-1,17
 294 802 294 802 311 794.5 c 128,-1,18
 328 787 328 787 338 771 c 128,-1,19
 348 755 348 755 348 725 c 2,20,-1
 348 107 l 1,21,-1
 403 107 l 1,22,23
 427 99 427 99 439 84 c 128,-1,24
 451 69 451 69 451 52 c 0,25,26
 451 34 451 34 437.5 18 c 128,-1,27
 424 2 424 2 398 -3 c 1,28,-1
 203 -3 l 1,29,-1
 203 -3 l 1,0,1
EndSplineSet
Validated: 5
EndChar

StartChar: m
Encoding: 109 109 79
Width: 562
GlyphClass: 2
Flags: W
LayerCount: 2
Fore
SplineSet
139 58 m 1,0,1
 137 27 137 27 120.5 11.5 c 128,-1,2
 104 -4 104 -4 84 -4 c 0,3,4
 65 -4 65 -4 49 10 c 128,-1,5
 33 24 33 24 29 53 c 1,6,-1
 29 453 l 1,7,8
 34 479 34 479 50 492.5 c 128,-1,9
 66 506 66 506 84 506 c 256,10,11
 102 506 102 506 118 492 c 1,12,13
 148 504 148 504 182 504 c 0,14,15
 208 504 208 504 233.5 496.5 c 128,-1,16
 259 489 259 489 279 473 c 1,17,18
 299 488 299 488 325 496 c 128,-1,19
 351 504 351 504 377 504 c 0,20,21
 424 504 424 504 453 491 c 128,-1,22
 482 478 482 478 498.5 455 c 128,-1,23
 515 432 515 432 521 399 c 128,-1,24
 527 366 527 366 527 327 c 0,25,26
 527 296 527 296 527.5 254.5 c 128,-1,27
 528 213 528 213 528 173.5 c 128,-1,28
 528 134 528 134 528 102 c 128,-1,29
 528 70 528 70 528 58 c 0,30,31
 528 27 528 27 510 11.5 c 128,-1,32
 492 -4 492 -4 473 -4 c 256,33,34
 454 -4 454 -4 438 10 c 128,-1,35
 422 24 422 24 418 53 c 0,36,37
 418 78 418 78 418 118.5 c 128,-1,38
 418 159 418 159 418 202 c 128,-1,39
 418 245 418 245 418 285.5 c 128,-1,40
 418 326 418 326 418 351 c 0,41,42
 418 373 418 373 404.5 384 c 128,-1,43
 391 395 391 395 375.5 395 c 128,-1,44
 360 395 360 395 347.5 384.5 c 128,-1,45
 335 374 335 374 335 353 c 0,46,47
 335 322 335 322 335 276.5 c 128,-1,48
 335 231 335 231 335 186.5 c 128,-1,49
 335 142 335 142 334.5 106 c 128,-1,50
 334 70 334 70 334 58 c 0,51,52
 334 27 334 27 316 11.5 c 128,-1,53
 298 -4 298 -4 279 -4 c 256,54,55
 260 -4 260 -4 244 10 c 128,-1,56
 228 24 228 24 224 53 c 0,57,58
 224 78 224 78 224 119 c 128,-1,59
 224 160 224 160 223.5 204.5 c 128,-1,60
 223 249 223 249 223 290 c 128,-1,61
 223 331 223 331 223 356 c 0,62,63
 223 377 223 377 210 386 c 128,-1,64
 197 395 197 395 181 394 c 128,-1,65
 165 393 165 393 152 383 c 128,-1,66
 139 373 139 373 139 356 c 2,67,-1
 139 58 l 1,68,-1
 139 58 l 1,0,1
EndSplineSet
Validated: 5
EndChar

StartChar: n
Encoding: 110 110 80
Width: 562
GlyphClass: 2
Flags: W
LayerCount: 2
Fore
SplineSet
139 59 m 1,0,1
 137 28 137 28 120.5 12.5 c 128,-1,2
 104 -3 104 -3 84 -3 c 0,3,4
 65 -3 65 -3 49 11 c 128,-1,5
 33 25 33 25 29 54 c 1,6,-1
 29 443 l 1,7,8
 34 469 34 469 50 482.5 c 128,-1,9
 66 496 66 496 84 496 c 0,10,11
 98 496 98 496 111.5 487 c 128,-1,12
 125 478 125 478 134 461 c 1,13,14
 168 478 168 478 207 487 c 128,-1,15
 246 496 246 496 287 496 c 0,16,17
 340 496 340 496 389 481 c 128,-1,18
 438 466 438 466 473 434 c 0,19,20
 502 411 502 411 514.5 380 c 128,-1,21
 527 349 527 349 527 292 c 0,22,23
 527 269 527 269 527 238 c 128,-1,24
 527 207 527 207 527.5 174 c 128,-1,25
 528 141 528 141 528 110.5 c 128,-1,26
 528 80 528 80 528 59 c 0,27,28
 526 28 526 28 509.5 12.5 c 128,-1,29
 493 -3 493 -3 473 -3 c 0,30,31
 454 -3 454 -3 438 11 c 128,-1,32
 422 25 422 25 418 54 c 1,33,-1
 418 310 l 2,34,35
 418 329 418 329 407 343.5 c 128,-1,36
 396 358 396 358 378 367.5 c 128,-1,37
 360 377 360 377 337 382 c 128,-1,38
 314 387 314 387 290 387 c 256,39,40
 266 387 266 387 239 381.5 c 128,-1,41
 212 376 212 376 190 366 c 128,-1,42
 168 356 168 356 153.5 341 c 128,-1,43
 139 326 139 326 139 307 c 2,44,-1
 139 59 l 1,45,-1
 139 59 l 1,0,1
EndSplineSet
Validated: 5
EndChar

StartChar: o
Encoding: 111 111 81
Width: 562
GlyphClass: 2
Flags: W
LayerCount: 2
Fore
SplineSet
527 246 m 2,0,1
 523 184 523 184 500 137.5 c 128,-1,2
 477 91 477 91 442.5 59.5 c 128,-1,3
 408 28 408 28 367 12.5 c 128,-1,4
 326 -3 326 -3 286 -3 c 0,5,6
 238 -3 238 -3 191.5 16 c 128,-1,7
 145 35 145 35 109 69.5 c 128,-1,8
 73 104 73 104 51 152 c 128,-1,9
 29 200 29 200 29 259 c 0,10,11
 29 315 29 315 51 362.5 c 128,-1,12
 73 410 73 410 109 444.5 c 128,-1,13
 145 479 145 479 191 498 c 128,-1,14
 237 517 237 517 286 517 c 0,15,16
 332 517 332 517 374.5 498 c 128,-1,17
 417 479 417 479 450 445.5 c 128,-1,18
 483 412 483 412 504 365.5 c 128,-1,19
 525 319 525 319 528 264 c 1,20,-1
 527 246 l 2,0,1
418 259 m 0,21,22
 416 286 416 286 407.5 312 c 128,-1,23
 399 338 399 338 382.5 359 c 128,-1,24
 366 380 366 380 341.5 392.5 c 128,-1,25
 317 405 317 405 284 405 c 0,26,27
 255 405 255 405 229 394 c 128,-1,28
 203 383 203 383 183 364 c 128,-1,29
 163 345 163 345 151 318.5 c 128,-1,30
 139 292 139 292 139 262 c 0,31,32
 139 233 139 233 149.5 205 c 128,-1,33
 160 177 160 177 178.5 155 c 128,-1,34
 197 133 197 133 223 120 c 128,-1,35
 249 107 249 107 279 107 c 0,36,37
 316 107 316 107 341.5 121 c 128,-1,38
 367 135 367 135 383.5 157.5 c 128,-1,39
 400 180 400 180 408 206.5 c 128,-1,40
 416 233 416 233 418 259 c 0,21,22
EndSplineSet
Validated: 1
EndChar

StartChar: p
Encoding: 112 112 82
Width: 562
GlyphClass: 2
Flags: W
LayerCount: 2
Fore
SplineSet
139 -26 m 1,0,1
 137 -57 137 -57 120.5 -72.5 c 128,-1,2
 104 -88 104 -88 84 -88 c 0,3,4
 65 -88 65 -88 49 -74 c 128,-1,5
 33 -60 33 -60 29 -31 c 1,6,-1
 29 440 l 1,7,8
 34 466 34 466 50 479.5 c 128,-1,9
 66 493 66 493 84 493 c 0,10,11
 98 493 98 493 112 484 c 128,-1,12
 126 475 126 475 134 457 c 1,13,14
 168 475 168 475 206.5 484 c 128,-1,15
 245 493 245 493 283 493 c 0,16,17
 323 493 323 493 366 480.5 c 128,-1,18
 409 468 409 468 444.5 444 c 128,-1,19
 480 420 480 420 503 384.5 c 128,-1,20
 526 349 526 349 528 302 c 0,21,22
 528 253 528 253 506.5 213 c 128,-1,23
 485 173 485 173 450.5 145 c 128,-1,24
 416 117 416 117 371.5 101.5 c 128,-1,25
 327 86 327 86 281 86 c 0,26,27
 246 86 246 86 209 95.5 c 128,-1,28
 172 105 172 105 139 123 c 1,29,-1
 139 -26 l 1,30,-1
 139 -26 l 1,0,1
144 317 m 0,31,32
 142 313 142 313 141 308.5 c 128,-1,33
 140 304 140 304 139 299 c 0,34,35
 142 273 142 273 156 254 c 128,-1,36
 170 235 170 235 191 222 c 128,-1,37
 212 209 212 209 237.5 203 c 128,-1,38
 263 197 263 197 288 197 c 0,39,40
 312 197 312 197 335.5 203 c 128,-1,41
 359 209 359 209 377.5 221.5 c 128,-1,42
 396 234 396 234 407 253 c 128,-1,43
 418 272 418 272 418 297 c 0,44,45
 418 324 418 324 400.5 340.5 c 128,-1,46
 383 357 383 357 360 366.5 c 128,-1,47
 337 376 337 376 313.5 379.5 c 128,-1,48
 290 383 290 383 278 383 c 0,49,50
 258 383 258 383 238 379.5 c 128,-1,51
 218 376 218 376 200 368 c 128,-1,52
 182 360 182 360 167.5 347.5 c 128,-1,53
 153 335 153 335 144 317 c 0,31,32
EndSplineSet
Validated: 5
EndChar

StartChar: q
Encoding: 113 113 83
Width: 562
GlyphClass: 2
Flags: W
LayerCount: 2
Fore
SplineSet
528 -26 m 1,0,1
 526 -57 526 -57 509.5 -72.5 c 128,-1,2
 493 -88 493 -88 473 -88 c 0,3,4
 454 -88 454 -88 438 -74 c 128,-1,5
 422 -60 422 -60 418 -31 c 1,6,-1
 418 123 l 1,7,8
 353 86 353 86 281 86 c 0,9,10
 246 86 246 86 209 95.5 c 128,-1,11
 172 105 172 105 139 123.5 c 128,-1,12
 106 142 106 142 80 169 c 128,-1,13
 54 196 54 196 41 231 c 0,14,15
 35 248 35 248 33 264 c 128,-1,16
 31 280 31 280 29 297 c 0,17,18
 31 314 31 314 33.5 330 c 128,-1,19
 36 346 36 346 43 361 c 0,20,21
 58 395 58 395 83.5 419.5 c 128,-1,22
 109 444 109 444 141 460.5 c 128,-1,23
 173 477 173 477 209.5 485 c 128,-1,24
 246 493 246 493 282 493 c 0,25,26
 320 493 320 493 355 484.5 c 128,-1,27
 390 476 390 476 423 457 c 1,28,29
 431 475 431 475 444.5 484 c 128,-1,30
 458 493 458 493 473 493 c 0,31,32
 490 493 490 493 505 481 c 128,-1,33
 520 469 520 469 528 445 c 1,34,-1
 528 -26 l 1,35,-1
 528 -26 l 1,0,1
144 317 m 0,36,37
 142 313 142 313 141 308.5 c 128,-1,38
 140 304 140 304 139 299 c 0,39,40
 142 273 142 273 156 254 c 128,-1,41
 170 235 170 235 191 222 c 128,-1,42
 212 209 212 209 237.5 203 c 128,-1,43
 263 197 263 197 288 197 c 0,44,45
 312 197 312 197 335.5 203 c 128,-1,46
 359 209 359 209 377.5 221.5 c 128,-1,47
 396 234 396 234 407 253 c 128,-1,48
 418 272 418 272 418 297 c 0,49,50
 418 324 418 324 400.5 340.5 c 128,-1,51
 383 357 383 357 360 366.5 c 128,-1,52
 337 376 337 376 313.5 379.5 c 128,-1,53
 290 383 290 383 278 383 c 0,54,55
 258 383 258 383 238 379.5 c 128,-1,56
 218 376 218 376 200 368 c 128,-1,57
 182 360 182 360 167.5 347.5 c 128,-1,58
 153 335 153 335 144 317 c 0,36,37
EndSplineSet
Validated: 5
EndChar

StartChar: r
Encoding: 114 114 84
Width: 562
GlyphClass: 2
Flags: W
LayerCount: 2
Fore
SplineSet
139 58 m 1,0,1
 137 27 137 27 120.5 11.5 c 128,-1,2
 104 -4 104 -4 84 -4 c 0,3,4
 65 -4 65 -4 49 10 c 128,-1,5
 33 24 33 24 29 53 c 1,6,-1
 29 453 l 1,7,8
 34 479 34 479 50 492.5 c 128,-1,9
 66 506 66 506 84 506 c 0,10,11
 98 506 98 506 111 498.5 c 128,-1,12
 124 491 124 491 132 474 c 1,13,14
 166 494 166 494 203 505 c 128,-1,15
 240 516 240 516 275 516 c 0,16,17
 306 516 306 516 339 506 c 128,-1,18
 372 496 372 496 401 484 c 0,19,20
 419 476 419 476 441 464 c 128,-1,21
 463 452 463 452 482 436 c 128,-1,22
 501 420 501 420 513.5 400 c 128,-1,23
 526 380 526 380 526 358 c 0,24,25
 526 333 526 333 511 318.5 c 128,-1,26
 496 304 496 304 476 304 c 0,27,28
 464 304 464 304 451.5 309 c 128,-1,29
 439 314 439 314 428 326 c 0,30,31
 419 342 419 342 402 357 c 128,-1,32
 385 372 385 372 364 382.5 c 128,-1,33
 343 393 343 393 320.5 399.5 c 128,-1,34
 298 406 298 406 278 406 c 0,35,36
 240 406 240 406 201.5 387.5 c 128,-1,37
 163 369 163 369 139 340 c 1,38,-1
 139 58 l 1,39,-1
 139 58 l 1,0,1
EndSplineSet
Validated: 5
EndChar

StartChar: s
Encoding: 115 115 85
Width: 562
GlyphClass: 2
Flags: W
LayerCount: 2
Fore
SplineSet
61 43 m 0,0,1
 49 54 49 54 44 66.5 c 128,-1,2
 39 79 39 79 39 91 c 0,3,4
 39 111 39 111 53.5 126 c 128,-1,5
 68 141 68 141 93 141 c 0,6,7
 98 141 98 141 104 140 c 128,-1,8
 110 139 110 139 117 137 c 0,9,10
 146 119 146 119 180 112.5 c 128,-1,11
 214 106 214 106 249 106 c 0,12,13
 273 106 273 106 303.5 108 c 128,-1,14
 334 110 334 110 361 116 c 128,-1,15
 388 122 388 122 406 133 c 128,-1,16
 424 144 424 144 424 162 c 0,17,18
 424 179 424 179 408.5 195.5 c 128,-1,19
 393 212 393 212 351 212 c 0,20,21
 332 212 332 212 314 210.5 c 128,-1,22
 296 209 296 209 286 209 c 0,23,24
 254 209 254 209 220 211.5 c 128,-1,25
 186 214 186 214 154.5 224 c 128,-1,26
 123 234 123 234 96.5 252.5 c 128,-1,27
 70 271 70 271 55 304 c 0,28,29
 49 316 49 316 45 330 c 128,-1,30
 41 344 41 344 41 358 c 0,31,32
 41 400 41 400 66.5 428.5 c 128,-1,33
 92 457 92 457 131 474.5 c 128,-1,34
 170 492 170 492 217 500 c 128,-1,35
 264 508 264 508 307 508 c 0,36,37
 336 508 336 508 369.5 505.5 c 128,-1,38
 403 503 403 503 431 495.5 c 128,-1,39
 459 488 459 488 477.5 473.5 c 128,-1,40
 496 459 496 459 496 434 c 0,41,42
 496 414 496 414 480.5 398.5 c 128,-1,43
 465 383 465 383 437 383 c 0,44,45
 430 383 430 383 426 384 c 0,46,47
 376 399 376 399 315 399 c 0,48,49
 270 399 270 399 227.5 389.5 c 128,-1,50
 185 380 185 380 152 359 c 1,51,-1
 152 352 l 2,52,53
 152 350 152 350 153 348 c 1,54,-1
 153 349 l 1,55,56
 179 329 179 329 208 322.5 c 128,-1,57
 237 316 237 316 266 316 c 0,58,59
 290 316 290 316 314 318 c 128,-1,60
 338 320 338 320 361 320 c 0,61,62
 381 320 381 320 402 317 c 128,-1,63
 423 314 423 314 442.5 304.5 c 128,-1,64
 462 295 462 295 480.5 278.5 c 128,-1,65
 499 262 499 262 515 235 c 0,66,67
 524 218 524 218 528.5 199 c 128,-1,68
 533 180 533 180 533 165 c 0,69,70
 533 118 533 118 512.5 86 c 128,-1,71
 492 54 492 54 456 34.5 c 128,-1,72
 420 15 420 15 371 6 c 128,-1,73
 322 -3 322 -3 265 -3 c 0,74,75
 199 -3 199 -3 152.5 7 c 128,-1,76
 106 17 106 17 61 43 c 0,0,1
EndSplineSet
Validated: 1
EndChar

StartChar: t
Encoding: 116 116 86
Width: 562
GlyphClass: 2
Flags: W
LayerCount: 2
Fore
SplineSet
138 430 m 1,0,1
 109 434 109 434 95 450 c 128,-1,2
 81 466 81 466 81 485 c 0,3,4
 81 505 81 505 96.5 521.5 c 128,-1,5
 112 538 112 538 143 540 c 2,6,-1
 194 540 l 1,7,-1
 194 672 l 1,8,9
 199 698 199 698 215 711.5 c 128,-1,10
 231 725 231 725 249 725 c 0,11,12
 266 725 266 725 281 713 c 128,-1,13
 296 701 296 701 304 677 c 1,14,-1
 304 540 l 1,15,-1
 450 540 l 1,16,17
 474 532 474 532 486 517 c 128,-1,18
 498 502 498 502 498 485 c 0,19,20
 498 467 498 467 484.5 451 c 128,-1,21
 471 435 471 435 445 430 c 1,22,-1
 307 430 l 1,23,-1
 307 133 l 1,24,-1
 313 124 l 1,25,26
 335 105 335 105 363 105 c 0,27,28
 377 105 377 105 386.5 107 c 128,-1,29
 396 109 396 109 408 120 c 1,30,31
 413 146 413 146 432 158.5 c 128,-1,32
 451 171 451 171 466 171 c 0,33,34
 488 171 488 171 503 153.5 c 128,-1,35
 518 136 518 136 518 105 c 1,36,37
 501 52 501 52 464 24 c 128,-1,38
 427 -4 427 -4 365 -4 c 0,39,40
 329 -4 329 -4 297.5 7 c 128,-1,41
 266 18 266 18 243 38 c 128,-1,42
 220 58 220 58 207 86 c 128,-1,43
 194 114 194 114 194 149 c 0,44,45
 194 158 194 158 194 180 c 128,-1,46
 194 202 194 202 194 230 c 128,-1,47
 194 258 194 258 193.5 289.5 c 128,-1,48
 193 321 193 321 193 349 c 128,-1,49
 193 377 193 377 193 399 c 128,-1,50
 193 421 193 421 193 430 c 1,51,-1
 138 430 l 1,52,-1
 138 430 l 1,0,1
EndSplineSet
Validated: 5
EndChar

StartChar: u
Encoding: 117 117 87
Width: 562
GlyphClass: 2
Flags: W
LayerCount: 2
Fore
SplineSet
29 443 m 1,0,1
 34 469 34 469 50 482.5 c 128,-1,2
 66 496 66 496 84 496 c 0,3,4
 101 496 101 496 116 484 c 128,-1,5
 131 472 131 472 139 448 c 1,6,7
 139 405 139 405 138.5 362.5 c 128,-1,8
 138 320 138 320 138 277 c 0,9,10
 138 256 138 256 138.5 234.5 c 128,-1,11
 139 213 139 213 139 192 c 0,12,13
 139 169 139 169 150.5 153 c 128,-1,14
 162 137 162 137 181.5 126.5 c 128,-1,15
 201 116 201 116 226.5 111 c 128,-1,16
 252 106 252 106 281 106 c 0,17,18
 341 106 341 106 376 127 c 128,-1,19
 411 148 411 148 418 197 c 1,20,-1
 418 443 l 1,21,22
 423 469 423 469 439 482.5 c 128,-1,23
 455 496 455 496 473 496 c 0,24,25
 490 496 490 496 505 484 c 128,-1,26
 520 472 520 472 528 448 c 1,27,-1
 528 59 l 2,28,29
 526 28 526 28 509.5 12.5 c 128,-1,30
 493 -3 493 -3 473 -3 c 0,31,32
 459 -3 459 -3 445.5 5.5 c 128,-1,33
 432 14 432 14 424 31 c 1,34,35
 391 13 391 13 352 4.5 c 128,-1,36
 313 -4 313 -4 273 -4 c 0,37,38
 222 -4 222 -4 174 10 c 128,-1,39
 126 24 126 24 91 53 c 0,40,41
 70 70 70 70 58 85.5 c 128,-1,42
 46 101 46 101 39.5 119 c 128,-1,43
 33 137 33 137 31 159.5 c 128,-1,44
 29 182 29 182 29 213 c 2,45,-1
 29 443 l 1,46,-1
 29 443 l 1,0,1
EndSplineSet
Validated: 5
EndChar

StartChar: v
Encoding: 118 118 88
Width: 562
GlyphClass: 2
Flags: W
LayerCount: 2
Fore
SplineSet
31 432 m 1,0,1
 30 436 30 436 30 443 c 0,2,3
 30 470 30 470 45.5 485.5 c 128,-1,4
 61 501 61 501 81 501 c 0,5,6
 95 501 95 501 108.5 494 c 128,-1,7
 122 487 122 487 133 471 c 0,8,9
 170 397 170 397 206 323.5 c 128,-1,10
 242 250 242 250 279 176 c 1,11,12
 315 249 315 249 350.5 321.5 c 128,-1,13
 386 394 386 394 422 467 c 0,14,15
 433 485 433 485 447 493 c 128,-1,16
 461 501 461 501 475 501 c 0,17,18
 495 501 495 501 510.5 486.5 c 128,-1,19
 526 472 526 472 526 449 c 0,20,21
 526 435 526 435 520 420 c 0,22,23
 472 320 472 320 423.5 221.5 c 128,-1,24
 375 123 375 123 326 24 c 1,25,26
 303 -3 303 -3 277 -3 c 0,27,28
 262 -3 262 -3 248.5 6.5 c 128,-1,29
 235 16 235 16 226 36 c 2,30,-1
 31 432 l 1,31,-1
 31 432 l 1,0,1
EndSplineSet
Validated: 5
EndChar

StartChar: w
Encoding: 119 119 89
Width: 562
GlyphClass: 2
Flags: W
LayerCount: 2
Fore
SplineSet
29 422 m 0,0,1
 28 426 28 426 28 434 c 0,2,3
 28 465 28 465 44.5 482 c 128,-1,4
 61 499 61 499 81 499 c 0,5,6
 98 499 98 499 113.5 486.5 c 128,-1,7
 129 474 129 474 137 447 c 0,8,9
 146 390 146 390 154.5 334.5 c 128,-1,10
 163 279 163 279 172 223 c 1,11,12
 182 241 182 241 193.5 264 c 128,-1,13
 205 287 205 287 218 306.5 c 128,-1,14
 231 326 231 326 246 339.5 c 128,-1,15
 261 353 261 353 279 353 c 0,16,17
 295 353 295 353 309.5 339.5 c 128,-1,18
 324 326 324 326 336.5 306.5 c 128,-1,19
 349 287 349 287 360.5 264.5 c 128,-1,20
 372 242 372 242 383 224 c 1,21,22
 392 278 392 278 400.5 332.5 c 128,-1,23
 409 387 409 387 418 441 c 0,24,25
 423 471 423 471 439.5 485 c 128,-1,26
 456 499 456 499 473 499 c 0,27,28
 495 499 495 499 511 480.5 c 128,-1,29
 527 462 527 462 527 427 c 1,30,31
 511 332 511 332 496 237.5 c 128,-1,32
 481 143 481 143 466 47 c 1,33,34
 458 23 458 23 444 11 c 128,-1,35
 430 -1 430 -1 414 -1 c 0,36,37
 390 -1 390 -1 367 24 c 1,38,39
 345 63 345 63 323 102 c 128,-1,40
 301 141 301 141 279 180 c 1,41,42
 264 156 264 156 247.5 124.5 c 128,-1,43
 231 93 231 93 213.5 65.5 c 128,-1,44
 196 38 196 38 177.5 18.5 c 128,-1,45
 159 -1 159 -1 141 -1 c 0,46,47
 126 -1 126 -1 112.5 9.5 c 128,-1,48
 99 20 99 20 90 42 c 1,49,50
 75 138 75 138 60 232 c 128,-1,51
 45 326 45 326 29 422 c 0,0,1
EndSplineSet
Validated: 1
EndChar

StartChar: x
Encoding: 120 120 90
Width: 562
GlyphClass: 2
Flags: W
LayerCount: 2
Fore
SplineSet
52 396 m 1,0,1
 30 418 30 418 30 444 c 0,2,3
 30 465 30 465 44.5 479.5 c 128,-1,4
 59 494 59 494 81 494 c 256,5,6
 103 494 103 494 123 480 c 1,7,-1
 278 324 l 1,8,-1
 431 477 l 2,9,10
 453 495 453 495 475 495 c 256,11,12
 497 495 497 495 512 480 c 128,-1,13
 527 465 527 465 527 443 c 256,14,15
 527 421 527 421 509 399 c 2,16,-1
 356 246 l 1,17,-1
 512 91 l 1,18,19
 526 71 526 71 526 49 c 256,20,21
 526 27 526 27 511.5 12.5 c 128,-1,22
 497 -2 497 -2 476 -2 c 0,23,24
 450 -2 450 -2 428 20 c 2,25,-1
 278 169 l 1,26,27
 238 129 238 129 198.5 89.5 c 128,-1,28
 159 50 159 50 120 10 c 1,29,30
 99 -2 99 -2 82 -2 c 0,31,32
 59 -2 59 -2 44.5 12.5 c 128,-1,33
 30 27 30 27 30 50 c 0,34,35
 30 67 30 67 42 88 c 1,36,37
 82 127 82 127 121.5 166.5 c 128,-1,38
 161 206 161 206 201 246 c 1,39,-1
 52 396 l 1,40,-1
 52 396 l 1,0,1
EndSplineSet
Validated: 5
EndChar

StartChar: y
Encoding: 121 121 91
Width: 562
GlyphClass: 2
Flags: W
LayerCount: 2
Fore
SplineSet
39 411 m 1,0,1
 31 427 31 427 31 445 c 0,2,3
 31 468 31 468 45 482.5 c 128,-1,4
 59 497 59 497 81 497 c 0,5,6
 100 497 100 497 123 482 c 1,7,8
 162 437 162 437 200.5 391.5 c 128,-1,9
 239 346 239 346 278 301 c 1,10,11
 316 346 316 346 354.5 390 c 128,-1,12
 393 434 393 434 431 479 c 1,13,14
 453 497 453 497 475 497 c 256,15,16
 497 497 497 497 512 482 c 128,-1,17
 527 467 527 467 527 445 c 0,18,19
 527 435 527 435 522.5 423.5 c 128,-1,20
 518 412 518 412 509 401 c 0,21,22
 504 395 504 395 490 379 c 128,-1,23
 476 363 476 363 457 341 c 128,-1,24
 438 319 438 319 417 295 c 128,-1,25
 396 271 396 271 377.5 249 c 128,-1,26
 359 227 359 227 345 211 c 128,-1,27
 331 195 331 195 326 189 c 0,28,29
 324 184 324 184 320 180 c 128,-1,30
 316 176 316 176 311 172 c 0,31,32
 263 116 263 116 215.5 61 c 128,-1,33
 168 6 168 6 120 -50 c 1,34,35
 99 -62 99 -62 82 -62 c 0,36,37
 59 -62 59 -62 44.5 -47.5 c 128,-1,38
 30 -33 30 -33 30 -10 c 0,39,40
 30 7 30 7 42 28 c 1,41,42
 83 76 83 76 123.5 122.5 c 128,-1,43
 164 169 164 169 205 217 c 1,44,45
 163 266 163 266 122 314.5 c 128,-1,46
 81 363 81 363 39 411 c 1,0,1
EndSplineSet
Validated: 1
EndChar

StartChar: z
Encoding: 122 122 92
Width: 562
GlyphClass: 2
Flags: W
LayerCount: 2
Fore
SplineSet
480 107 m 1,0,1
 504 99 504 99 516 84 c 128,-1,2
 528 69 528 69 528 52 c 0,3,4
 528 34 528 34 514.5 18 c 128,-1,5
 501 2 501 2 475 -3 c 1,6,-1
 86 -3 l 1,7,8
 30 5 30 5 30 48 c 0,9,10
 30 67 30 67 42 88 c 1,11,12
 117 165 117 165 192 241 c 128,-1,13
 267 317 267 317 343 394 c 1,14,15
 278 393 278 393 214.5 393 c 128,-1,16
 151 393 151 393 86 393 c 1,17,18
 57 397 57 397 43 413 c 128,-1,19
 29 429 29 429 29 448 c 0,20,21
 29 468 29 468 44.5 484.5 c 128,-1,22
 60 501 60 501 91 503 c 0,23,24
 189 503 189 503 286 503 c 128,-1,25
 383 503 383 503 481 504 c 1,26,27
 504 497 504 497 516 483 c 128,-1,28
 528 469 528 469 528 451 c 0,29,30
 528 429 528 429 510 407 c 0,31,32
 435 332 435 332 362 257 c 128,-1,33
 289 182 289 182 214 107 c 1,34,-1
 480 107 l 1,35,-1
 480 107 l 1,0,1
EndSplineSet
Validated: 5
EndChar

StartChar: exclamdown
Encoding: 161 161 93
Width: 562
GlyphClass: 2
Flags: W
LayerCount: 2
Fore
SplineSet
248 660 m 2,0,1
 270 678 270 678 292 678 c 256,2,3
 314 678 314 678 329 663 c 128,-1,4
 344 648 344 648 344 626 c 0,5,6
 344 609 344 609 331 591.5 c 128,-1,7
 318 574 318 574 299 557 c 128,-1,8
 280 540 280 540 259 523.5 c 128,-1,9
 238 507 238 507 222 493 c 1,10,-1
 492 493 l 1,11,12
 516 485 516 485 528 470 c 128,-1,13
 540 455 540 455 540 438 c 0,14,15
 540 420 540 420 526.5 404 c 128,-1,16
 513 388 513 388 487 383 c 1,17,-1
 221 383 l 1,18,19
 237 368 237 368 258.5 351 c 128,-1,20
 280 334 280 334 299 316.5 c 128,-1,21
 318 299 318 299 331 281.5 c 128,-1,22
 344 264 344 264 344 247 c 0,23,24
 344 225 344 225 329.5 211 c 128,-1,25
 315 197 315 197 292 197 c 0,26,27
 274 197 274 197 258 205 c 1,28,29
 204 253 204 253 150.5 299.5 c 128,-1,30
 97 346 97 346 43 393 c 0,31,32
 21 415 21 415 21 438 c 0,33,34
 21 454 21 454 33 474 c 1,35,-1
 248 660 l 2,0,1
EndSplineSet
Validated: 1
EndChar

StartChar: cent
Encoding: 162 162 94
Width: 562
GlyphClass: 2
Flags: W
LayerCount: 2
Fore
SplineSet
527 470 m 1,0,1
 539 450 539 450 539 434 c 0,2,3
 539 411 539 411 517 389 c 0,4,5
 463 342 463 342 409.5 295.5 c 128,-1,6
 356 249 356 249 302 201 c 1,7,8
 286 193 286 193 268 193 c 0,9,10
 245 193 245 193 230.5 207 c 128,-1,11
 216 221 216 221 216 243 c 0,12,13
 216 260 216 260 229 277.5 c 128,-1,14
 242 295 242 295 261 312.5 c 128,-1,15
 280 330 280 330 301 347 c 128,-1,16
 322 364 322 364 339 379 c 1,17,-1
 73 379 l 1,18,19
 47 384 47 384 33.5 400 c 128,-1,20
 20 416 20 416 20 434 c 0,21,22
 20 451 20 451 32 466 c 128,-1,23
 44 481 44 481 68 489 c 1,24,-1
 338 489 l 1,25,26
 322 503 322 503 301 519.5 c 128,-1,27
 280 536 280 536 261 553 c 128,-1,28
 242 570 242 570 229 587.5 c 128,-1,29
 216 605 216 605 216 622 c 0,30,31
 216 644 216 644 231 659 c 128,-1,32
 246 674 246 674 268 674 c 0,33,34
 289 674 289 674 312 656 c 2,35,-1
 527 470 l 1,0,1
EndSplineSet
Validated: 1
EndChar

StartChar: sterling
Encoding: 163 163 95
Width: 562
GlyphClass: 2
Flags: W
LayerCount: 2
Fore
SplineSet
535 272 m 2,0,1
 535 147 535 147 471 64 c 0,2,3
 409 -17 409 -17 278 -17 c 0,4,5
 154 -17 154 -17 92 63 c 0,6,7
 28 143 28 143 25 265 c 2,8,-1
 25 589 l 2,9,10
 25 726 25 726 89 809 c 0,11,12
 152 893 152 893 278 893 c 0,13,14
 410 893 410 893 469 811 c 0,15,16
 530 729 530 729 535 593 c 1,17,-1
 535 272 l 2,0,1
421 569 m 2,18,19
 420 644 420 644 388 709 c 0,20,21
 353 778 353 778 280 778 c 0,22,23
 201 778 201 778 168 706 c 0,24,25
 140 646 140 646 140 564 c 2,26,-1
 140 296 l 2,27,28
 140 261 140 261 148 228.5 c 128,-1,29
 156 196 156 196 170 166 c 0,30,31
 203 97 203 97 280 97 c 0,32,33
 354 97 354 97 389 166 c 0,34,35
 421 232 421 232 421 301 c 2,36,-1
 421 569 l 2,18,19
EndSplineSet
EndChar

StartChar: currency
Encoding: 164 164 96
Width: 45
GlyphClass: 2
Flags: W
LayerCount: 2
Fore
SplineSet
-36 8 m 0,0,1
 -36 31 -36 31 -20 46.5 c 128,-1,2
 -4 62 -4 62 19 62 c 0,3,4
 41 62 41 62 56.5 46.5 c 128,-1,5
 72 31 72 31 72 8 c 0,6,7
 72 -14 72 -14 56.5 -30 c 128,-1,8
 41 -46 41 -46 19 -46 c 0,9,10
 -4 -46 -4 -46 -20 -30 c 128,-1,11
 -36 -14 -36 -14 -36 8 c 0,0,1
EndSplineSet
Validated: 1
EndChar

StartChar: yen
Encoding: 165 165 97
Width: 45
GlyphClass: 2
Flags: W
LayerCount: 2
Fore
SplineSet
7 -87 m 1,0,-1
 -60 -87 l 1,1,-1
 -26 63 l 1,2,-1
 75 63 l 1,3,-1
 7 -87 l 1,0,-1
EndSplineSet
Validated: 1
EndChar

StartChar: degree
Encoding: 176 176 98
Width: 500
GlyphClass: 2
Flags: W
LayerCount: 2
Fore
SplineSet
157 877 m 0,0,1
 184 877 184 877 207.5 865 c 128,-1,2
 231 853 231 853 248.5 832 c 128,-1,3
 266 811 266 811 276 782.5 c 128,-1,4
 286 754 286 754 286 722 c 0,5,6
 286 689 286 689 276 660.5 c 128,-1,7
 266 632 266 632 248.5 611 c 128,-1,8
 231 590 231 590 207.5 578 c 128,-1,9
 184 566 184 566 157 566 c 0,10,11
 129 566 129 566 105 578 c 128,-1,12
 81 590 81 590 63.5 611 c 128,-1,13
 46 632 46 632 36 660.5 c 128,-1,14
 26 689 26 689 26 722 c 0,15,16
 26 754 26 754 36 782.5 c 128,-1,17
 46 811 46 811 63.5 832 c 128,-1,18
 81 853 81 853 105 865 c 128,-1,19
 129 877 129 877 157 877 c 0,0,1
157 777 m 0,20,21
 143 777 143 777 132.5 761.5 c 128,-1,22
 122 746 122 746 122 722 c 0,23,24
 122 699 122 699 132.5 682.5 c 128,-1,25
 143 666 143 666 157 666 c 0,26,27
 169 666 169 666 179.5 682.5 c 128,-1,28
 190 699 190 699 190 722 c 0,29,30
 190 746 190 746 179.5 761.5 c 128,-1,31
 169 777 169 777 157 777 c 0,20,21
EndSplineSet
Validated: 1
EndChar

StartChar: quotedblleft
Encoding: 8220 8220 101
Width: 562
GlyphClass: 2
Flags: W
LayerCount: 2
Fore
SplineSet
248 660 m 2,0,1
 270 678 270 678 292 678 c 256,2,3
 314 678 314 678 329 663 c 128,-1,4
 344 648 344 648 344 626 c 0,5,6
 344 609 344 609 331 591.5 c 128,-1,7
 318 574 318 574 299 557 c 128,-1,8
 280 540 280 540 259 523.5 c 128,-1,9
 238 507 238 507 222 493 c 1,10,-1
 492 493 l 1,11,12
 516 485 516 485 528 470 c 128,-1,13
 540 455 540 455 540 438 c 0,14,15
 540 420 540 420 526.5 404 c 128,-1,16
 513 388 513 388 487 383 c 1,17,-1
 221 383 l 1,18,19
 237 368 237 368 258.5 351 c 128,-1,20
 280 334 280 334 299 316.5 c 128,-1,21
 318 299 318 299 331 281.5 c 128,-1,22
 344 264 344 264 344 247 c 0,23,24
 344 225 344 225 329.5 211 c 128,-1,25
 315 197 315 197 292 197 c 0,26,27
 274 197 274 197 258 205 c 1,28,29
 204 253 204 253 150.5 299.5 c 128,-1,30
 97 346 97 346 43 393 c 0,31,32
 21 415 21 415 21 438 c 0,33,34
 21 454 21 454 33 474 c 1,35,-1
 248 660 l 2,0,1
EndSplineSet
Validated: 1
EndChar

StartChar: quotedblright
Encoding: 8221 8221 102
Width: 562
GlyphClass: 2
Flags: W
LayerCount: 2
Fore
SplineSet
527 470 m 1,0,1
 539 450 539 450 539 434 c 0,2,3
 539 411 539 411 517 389 c 0,4,5
 463 342 463 342 409.5 295.5 c 128,-1,6
 356 249 356 249 302 201 c 1,7,8
 286 193 286 193 268 193 c 0,9,10
 245 193 245 193 230.5 207 c 128,-1,11
 216 221 216 221 216 243 c 0,12,13
 216 260 216 260 229 277.5 c 128,-1,14
 242 295 242 295 261 312.5 c 128,-1,15
 280 330 280 330 301 347 c 128,-1,16
 322 364 322 364 339 379 c 1,17,-1
 73 379 l 1,18,19
 47 384 47 384 33.5 400 c 128,-1,20
 20 416 20 416 20 434 c 0,21,22
 20 451 20 451 32 466 c 128,-1,23
 44 481 44 481 68 489 c 1,24,-1
 338 489 l 1,25,26
 322 503 322 503 301 519.5 c 128,-1,27
 280 536 280 536 261 553 c 128,-1,28
 242 570 242 570 229 587.5 c 128,-1,29
 216 605 216 605 216 622 c 0,30,31
 216 644 216 644 231 659 c 128,-1,32
 246 674 246 674 268 674 c 0,33,34
 289 674 289 674 312 656 c 2,35,-1
 527 470 l 1,0,1
EndSplineSet
Validated: 1
EndChar
